<?xml version="1.0" encoding="UTF-8" standalone="no"?>
<!DOCTYPE svg PUBLIC "-//W3C//DTD SVG 1.1//EN" "http://www.w3.org/Graphics/SVG/1.1/DTD/svg11.dtd">
<svg width="100%" height="100%" viewBox="0 0 20065 3503" version="1.1" xmlns="http://www.w3.org/2000/svg" xmlns:xlink="http://www.w3.org/1999/xlink" xml:space="preserve" xmlns:serif="http://www.serif.com/" style="fill-rule:evenodd;clip-rule:evenodd;stroke-linejoin:round;stroke-miterlimit:10;">
    <g id="Artboard1" transform="matrix(1.36483,0,0,0.729894,0,-3725.77)">
        <rect x="0" y="5104.55" width="14701.5" height="4799.33" style="fill:none;"/>
        <clipPath id="_clip1">
            <rect x="0" y="5104.55" width="14701.5" height="4799.33"/>
        </clipPath>
        <g clip-path="url(#_clip1)">
            <g transform="matrix(3.05289,0,0,5.7086,12246.1,9936.21)">
                <g id="Gate">
                    <path d="M0,-293.424C2.031,-294.518 4.045,-295.466 4.486,-295.53C6.322,-295.798 3.73,-287.358 1.049,-284.342C-0.551,-282.546 -1.847,-280.376 -1.836,-279.52C-1.826,-278.664 -0.252,-273.864 1.668,-268.853C4.927,-260.35 5.042,-259.65 3.416,-258.337C2.455,-257.563 0.409,-256.656 -1.133,-256.32C-2.681,-255.984 -4.423,-254.757 -5.005,-253.593C-5.598,-252.416 -6.453,-251.884 -6.936,-252.395C-7.408,-252.899 -10.089,-253.146 -12.885,-252.941C-17.702,-252.59 -17.975,-252.411 -17.975,-249.572C-17.975,-246.429 -19.465,-245.275 -23.515,-245.275C-28.184,-245.275 -29.055,-244.262 -29.055,-238.84L-29.055,-233.705L-35.356,-232.57C-38.819,-231.946 -48.452,-230.417 -56.762,-229.174C-77.769,-226.033 -76.41,-226.48 -76.41,-222.721C-76.41,-220.271 -77.014,-219.256 -78.929,-218.481C-83.068,-216.807 -82.129,-213.691 -76.841,-211.542C-71.216,-209.257 -70.225,-207.132 -73.483,-204.339L-75.907,-202.261L-65.833,-202.921C-60.293,-203.284 -49.643,-204.005 -42.166,-204.524C-34.695,-205.042 -28.415,-205.291 -28.211,-205.077C-28.011,-204.862 -28.573,-203.584 -29.459,-202.236C-30.551,-200.581 -31.075,-197.456 -31.075,-192.612L-31.075,-185.44L-38.378,-184.844C-42.392,-184.517 -53.845,-183.954 -63.819,-183.593C-73.792,-183.232 -82.093,-182.785 -82.271,-182.598C-82.816,-182.015 -80.45,-148.885 -78.897,-135.453C-78.084,-128.397 -77.418,-122.225 -77.418,-121.739C-77.418,-121.253 -74.359,-120.997 -70.618,-121.171C-64.789,-121.443 -63.861,-121.756 -64.113,-123.364C-64.291,-124.476 -63.777,-125.239 -62.854,-125.239C-61.71,-125.239 -61.3,-126.376 -61.3,-129.526C-61.3,-133.385 -61.552,-133.813 -63.819,-133.813C-65.833,-133.813 -66.337,-134.349 -66.337,-136.493C-66.337,-138.636 -66.841,-139.172 -68.855,-139.172C-73.289,-139.172 -71.578,-140.928 -63.724,-144.434L-56.07,-147.851L-47.098,-144.437C-38.147,-141.032 -35.87,-139.172 -40.645,-139.172C-42.476,-139.172 -43.163,-138.598 -43.163,-137.066C-43.163,-135.908 -44.097,-134.429 -45.236,-133.78C-46.794,-132.895 -47.235,-131.745 -46.999,-129.188C-46.815,-127.157 -46.18,-125.883 -45.43,-126.043C-43.677,-126.416 -43.856,-124.708 -45.744,-123.04C-47.171,-121.779 -47.171,-121.562 -45.744,-120.711C-43.536,-119.396 -43.478,-108.091 -45.682,-108.091C-46.978,-108.091 -47.193,-104.919 -47.193,-85.971C-47.193,-66.166 -47.009,-63.7 -45.43,-62.412C-43.882,-61.151 -43.851,-60.831 -45.178,-59.802C-46.316,-58.918 -46.379,-58.494 -45.43,-58.085C-43.814,-57.386 -43.714,-45.286 -45.314,-44.231C-46.138,-43.69 -46.322,-37.041 -45.965,-20.589L-45.466,2.299L-64.627,2.299L-63.215,-43.787L-73.572,-43.787L-72.853,-34.409C-72.46,-29.25 -71.568,-19.244 -70.881,-12.17C-70.188,-5.096 -69.942,1.067 -70.324,1.526C-70.713,1.986 -77.339,2.227 -85.057,2.062L-99.081,1.763L-99.359,-8.955C-99.511,-14.849 -99.275,-24.856 -98.829,-31.194L-98.021,-42.715L-107.921,-42.715L-107.255,-30.122C-106.893,-23.196 -106.311,-13.067 -105.975,-7.615L-105.356,2.299L-127.874,2.299L-127.25,-18.869C-126.903,-30.51 -126.447,-40.638 -126.231,-41.375C-126.022,-42.111 -126.342,-42.715 -126.956,-42.715C-127.706,-42.715 -127.905,-45.139 -127.564,-50.217C-127.286,-54.343 -127.422,-57.719 -127.868,-57.719C-128.314,-57.719 -128.608,-58.684 -128.524,-59.863C-128.44,-61.042 -127.79,-62.006 -127.076,-62.006C-126.058,-62.006 -125.78,-67.056 -125.78,-85.496C-125.78,-98.94 -126.179,-109.137 -126.714,-109.342C-128.199,-109.91 -128.393,-123.421 -126.919,-123.941C-125.99,-124.272 -126.074,-125.025 -127.265,-126.954C-128.671,-129.235 -128.677,-129.526 -127.312,-129.526C-126.2,-129.526 -125.78,-130.686 -125.78,-133.793C-125.78,-137.45 -126.142,-138.156 -128.299,-138.731C-130.109,-139.215 -130.817,-140.127 -130.817,-141.967C-130.817,-143.816 -131.378,-144.531 -132.832,-144.531C-136.95,-144.531 -134.6,-146.219 -126.651,-148.975C-117.748,-152.063 -118.251,-152.107 -104.873,-147.045C-100.261,-145.299 -98.976,-142.88 -103.11,-143.721C-105.203,-144.147 -105.628,-143.819 -105.628,-141.778C-105.628,-140.047 -106.3,-139.22 -107.895,-138.979C-110.959,-138.516 -111.741,-131.941 -108.991,-129.8C-107.575,-128.701 -107.449,-128.174 -108.441,-127.523C-111.153,-125.738 -108.587,-123.096 -104.138,-123.096L-99.847,-123.096L-99.023,-133.01C-98.567,-138.461 -98.168,-151.786 -98.136,-162.618C-98.084,-178.658 -98.336,-182.423 -99.5,-182.897C-100.282,-183.216 -119.553,-182.872 -142.317,-182.129C-165.087,-181.386 -190.47,-180.701 -198.728,-180.607L-213.739,-180.434L-213.041,-152.13C-212.663,-136.561 -212.112,-123.419 -211.823,-122.924C-211.535,-122.429 -208.492,-122.08 -205.066,-122.148C-201.635,-122.217 -199.62,-122.493 -200.591,-122.763C-203.004,-123.434 -202.821,-125.239 -200.339,-125.239C-198.702,-125.239 -198.324,-125.954 -198.324,-129.046C-198.324,-132.313 -198.749,-133.013 -201.346,-133.974C-203.277,-134.69 -204.368,-135.831 -204.368,-137.133C-204.368,-138.255 -205.045,-139.172 -205.879,-139.172C-209.525,-139.172 -206.787,-141.071 -199.447,-143.63L-191.509,-146.399L-183.267,-142.518C-177.768,-139.927 -175.717,-138.523 -177.102,-138.293C-178.314,-138.094 -179.18,-137.144 -179.18,-136.016C-179.18,-134.723 -180.182,-133.868 -182.202,-133.438C-184.746,-132.897 -185.224,-132.292 -185.224,-129.607C-185.224,-127.717 -184.526,-126.001 -183.508,-125.396C-181.997,-124.496 -181.966,-124.153 -183.256,-122.489C-184.379,-121.041 -184.426,-120.499 -183.461,-120.153C-181.929,-119.605 -181.693,-107.02 -183.209,-107.02C-183.844,-107.02 -184.216,-99.467 -184.216,-86.506C-184.216,-68.216 -184.027,-65.843 -182.453,-64.601C-180.906,-63.377 -180.858,-62.915 -182.086,-60.78C-183.083,-59.054 -183.151,-58.235 -182.338,-57.946C-180.775,-57.391 -180.795,-44.858 -182.359,-44.858C-183.23,-44.858 -183.351,-38.844 -182.842,-21.28L-182.154,2.299L-203.361,2.299L-203.361,-0.994C-203.361,-2.805 -202.647,-12.966 -201.781,-23.573C-199.982,-45.592 -200.061,-45.93 -207.007,-45.93L-211.409,-45.93L-210.092,2.299L-238.623,2.299L-238.623,-1.336C-238.623,-4.92 -235.339,-32.588 -234.032,-39.985L-233.361,-43.787L-248.985,-43.787L-248.208,-24.227C-247.783,-13.469 -247.379,-3.221 -247.311,-1.453L-247.185,1.763L-258.156,2.068L-269.126,2.374L-268.397,-21.121C-267.883,-37.669 -267.988,-44.828 -268.759,-45.336C-270.317,-46.361 -270.176,-58.453 -268.596,-59.238C-267.589,-59.738 -267.589,-59.988 -268.596,-60.488C-270.375,-61.37 -270.17,-65.222 -268.344,-65.222C-267.085,-65.222 -266.833,-67.347 -266.833,-77.917C-266.833,-84.901 -266.54,-95.029 -266.177,-100.424C-265.543,-109.964 -265.585,-110.235 -267.689,-110.235C-269.682,-110.235 -269.855,-110.789 -269.855,-117.138C-269.855,-120.935 -269.378,-124.355 -268.796,-124.74C-268.087,-125.203 -268.266,-126.306 -269.32,-128.019C-270.826,-130.459 -270.8,-130.598 -268.811,-130.598C-267.001,-130.598 -266.755,-131.152 -267.028,-134.617C-267.295,-138.107 -267.704,-138.681 -270.107,-138.975C-272.432,-139.259 -272.877,-139.826 -272.877,-142.458C-272.877,-144.929 -273.329,-145.602 -274.976,-145.602C-279.137,-145.602 -276.167,-148.292 -271.288,-148.946C-268.56,-149.313 -264.714,-150.335 -262.741,-151.221C-259.73,-152.569 -258.848,-152.598 -257.316,-151.405C-256.309,-150.622 -252.594,-148.879 -249.069,-147.533C-242.642,-145.082 -240.889,-143.459 -244.667,-143.459C-246.146,-143.459 -246.681,-142.744 -246.681,-140.78C-246.681,-138.607 -247.18,-138.1 -249.31,-138.1C-251.293,-138.1 -251.786,-137.683 -251.325,-136.405C-250.989,-135.472 -250.716,-133.543 -250.716,-132.118C-250.716,-130.503 -250.134,-129.526 -249.168,-129.526C-247.967,-129.526 -247.846,-129.075 -248.628,-127.523C-249.53,-125.735 -249.137,-125.448 -244.997,-124.844C-242.448,-124.472 -238.68,-124.168 -236.635,-124.168L-232.909,-124.168L-231.262,-138.904C-230.36,-147.008 -229.321,-159.669 -228.959,-167.038L-228.303,-180.434L-271.576,-179.819L-272.154,-187.991C-272.594,-194.141 -273.192,-196.53 -274.572,-197.642C-276.151,-198.916 -273.386,-199.131 -254.746,-199.189C-238.229,-199.239 -233.56,-199.539 -235.097,-200.452C-236.204,-201.11 -237.301,-201.817 -237.526,-202.02C-238.466,-202.865 -234.105,-206.696 -230.947,-207.807C-226.619,-209.325 -226.104,-213.666 -230.061,-215.266C-232.065,-216.076 -232.579,-217.028 -232.579,-219.924L-232.579,-223.564L-238.875,-224.258C-258.339,-226.407 -272.526,-228.534 -273.633,-229.469C-274.325,-230.054 -274.892,-232.394 -274.892,-234.668C-274.892,-238.958 -275.139,-239.16 -281.445,-240.149C-282.552,-240.322 -283.906,-241.547 -284.451,-242.87C-285.333,-244.991 -286.188,-245.275 -291.723,-245.275C-297.211,-245.275 -298.145,-245.577 -299.168,-247.686C-299.813,-249.012 -301.529,-251.135 -302.977,-252.403C-305.569,-254.67 -305.579,-254.745 -303.722,-256.93C-302.683,-258.153 -300.973,-259.443 -299.923,-259.798C-298.869,-260.153 -297.431,-261.959 -296.718,-263.812C-295.479,-267.049 -295.579,-267.334 -299.268,-271.066C-303.307,-275.156 -304.588,-279.39 -301.34,-277.941C-277.599,-267.335 -247.096,-262.485 -203.865,-262.445C-200.333,-262.442 -192.957,-262.533 -192.957,-262.533C-192.957,-262.533 -117.218,-266.868 -77.622,-271.959C-71.521,-272.744 -66.28,-273.546 -62.308,-274.353C-49.448,-276.965 -35.299,-280.69 -23.368,-284.452C-13.284,-287.632 -4.79,-290.839 0,-293.424M-74.538,-107.585C-74.8,-107.308 -74.669,-103.812 -74.254,-99.815C-73.834,-95.82 -73.173,-84.472 -72.78,-74.599L-72.066,-56.647L-67.67,-56.647C-63.436,-56.647 -63.299,-56.75 -63.934,-59.442C-64.365,-61.258 -64.123,-62.544 -63.258,-63.117C-62.234,-63.786 -61.815,-69.264 -61.479,-86.043L-61.043,-108.091L-67.554,-108.091C-71.133,-108.091 -74.275,-107.864 -74.538,-107.585M-212.196,-83.49L-211.923,-58.351L-206.383,-58.664C-200.57,-58.99 -199.248,-59.487 -200.869,-60.724C-202.485,-61.955 -202.474,-64.168 -200.848,-64.83C-199.568,-65.355 -199.332,-68.74 -199.332,-86.68L-199.332,-107.908L-205.9,-108.268L-212.469,-108.627L-212.196,-83.49ZM-109.317,-85.317C-108.949,-72.79 -108.278,-62.41 -107.822,-62.249C-107.365,-62.086 -107.192,-60.499 -107.438,-58.721C-107.879,-55.546 -107.816,-55.496 -103.986,-55.914L-100.088,-56.339L-99.548,-108.091L-109.978,-108.091L-109.317,-85.317ZM-251.057,-88.532C-250.59,-71.04 -250.181,-66.58 -248.964,-65.544C-247.956,-64.69 -247.663,-63.344 -248.093,-61.525C-248.738,-58.795 -248.728,-58.791 -241.918,-58.794L-235.097,-58.797L-234.992,-83.878L-234.893,-108.958L-237.888,-109.597C-239.541,-109.947 -243.308,-110.235 -246.267,-110.235L-251.645,-110.235L-251.057,-88.532ZM-195.554,-223.04L-207.39,-222.701L-207.39,-219.056C-207.39,-216.352 -207.91,-215.235 -209.405,-214.73C-213.056,-213.497 -211.939,-209.304 -207.212,-206.505C-202.165,-203.515 -201.367,-201.678 -204.536,-200.328C-206.126,-199.65 -200.764,-199.303 -187.952,-199.258L-169.017,-199.19L-169.521,-206.424C-169.799,-210.402 -170.329,-215.95 -170.706,-218.749L-171.394,-223.84L-177.553,-223.609C-180.942,-223.483 -189.038,-223.226 -195.554,-223.04M-120.995,-224.082C-136.158,-223.818 -137.879,-223.601 -137.952,-221.939C-138,-220.922 -138.215,-218.883 -138.425,-217.41C-138.634,-215.936 -139.065,-211.406 -139.374,-207.344L-139.936,-199.957L-134.621,-200.636C-131.698,-201.009 -123.189,-201.385 -115.707,-201.47C-108.226,-201.555 -103.089,-201.829 -104.296,-202.079C-107.045,-202.648 -109.06,-205.128 -108.105,-206.767C-107.711,-207.448 -105.403,-208.94 -102.979,-210.079C-99.506,-211.713 -98.577,-212.707 -98.577,-214.781C-98.577,-216.853 -99.096,-217.41 -101.038,-217.41C-103.073,-217.41 -103.545,-218.006 -103.808,-220.893L-104.117,-224.376L-120.995,-224.082Z"/>
                </g>
            </g>
            <g transform="matrix(3.05289,0,0,5.7086,3885.43,9375.22)">
                <g id="Pagoda-5" serif:id="Pagoda 5">
                    <path d="M0,-143.255C0.234,-143.074 0.484,-142.889 0.752,-142.698C1.917,-141.869 3.405,-140.943 5.249,-139.9C6.607,-139.131 8.159,-138.298 9.917,-137.393C11.355,-136.652 12.933,-135.862 14.655,-135.019C17.026,-133.857 19.206,-132.812 21.211,-131.878C23.68,-130.726 25.883,-129.743 27.85,-128.918C30.535,-127.791 32.781,-126.959 34.664,-126.394C38.067,-125.373 40.291,-125.225 41.795,-125.793C42.084,-125.902 42.332,-125.993 42.545,-126.064C42.884,-126.177 43.134,-126.239 43.32,-126.242C43.625,-126.246 43.754,-126.089 43.807,-125.728C43.837,-125.528 43.843,-125.265 43.843,-124.932C43.843,-124.169 44.082,-123.552 44.553,-123.086C44.972,-122.671 45.574,-122.375 46.354,-122.198C46.931,-122.068 47.605,-122.003 48.375,-122.005C48.99,-122.006 49.666,-122.05 50.403,-122.136C50.831,-122.186 51.208,-122.23 51.541,-122.263C52.003,-122.31 52.378,-122.339 52.684,-122.345C53.259,-122.356 53.587,-122.287 53.776,-122.104C53.987,-121.899 54.024,-121.552 54.036,-121.016C54.042,-120.785 54.055,-120.51 54.072,-120.215C54.086,-119.959 54.105,-119.687 54.126,-119.414C54.147,-119.144 54.17,-118.873 54.195,-118.615C54.222,-118.326 54.252,-118.054 54.281,-117.817C54.335,-117.387 54.321,-117.035 54.2,-116.718C54.083,-116.412 53.867,-116.137 53.518,-115.855C53.275,-115.66 52.969,-115.46 52.588,-115.244C52.303,-115.083 51.976,-114.912 51.602,-114.726C51.224,-114.539 50.89,-114.36 50.595,-114.188C50.219,-113.967 49.908,-113.756 49.655,-113.544C49.319,-113.263 49.082,-112.981 48.924,-112.676C48.753,-112.346 48.674,-111.988 48.661,-111.575C48.653,-111.331 48.645,-111.123 48.635,-110.951C48.614,-110.628 48.582,-110.428 48.521,-110.341C48.436,-110.22 48.293,-110.32 48.043,-110.619C47.936,-110.747 47.809,-110.912 47.658,-111.111C47.209,-111.703 46.905,-111.993 45.974,-111.88C45.515,-111.824 44.906,-111.67 44.052,-111.407C43.525,-111.244 42.904,-111.04 42.17,-110.791C41.614,-110.602 40.992,-110.388 40.296,-110.148C39.211,-109.773 37.72,-109.326 35.999,-108.852C34.661,-108.483 33.186,-108.098 31.654,-107.718C30.225,-107.364 28.746,-107.012 27.286,-106.683C25.778,-106.342 24.289,-106.023 22.896,-105.746C21.846,-105.537 20.884,-105.342 20.004,-105.158C18.923,-104.932 17.966,-104.723 17.122,-104.528C15.963,-104.262 15.019,-104.022 14.262,-103.802C12.526,-103.296 11.777,-102.893 11.701,-102.501C11.661,-102.293 11.692,-102.093 11.79,-101.91C11.877,-101.748 12.014,-101.597 12.199,-101.463C12.347,-101.355 12.526,-101.257 12.733,-101.172C12.907,-101.1 13.101,-101.036 13.313,-100.983C13.612,-100.908 13.861,-100.835 14.066,-100.755C14.374,-100.634 14.581,-100.498 14.704,-100.316C14.835,-100.125 14.873,-99.883 14.843,-99.557C14.822,-99.341 14.771,-99.087 14.695,-98.785C14.586,-98.352 14.511,-98.028 14.507,-97.787C14.502,-97.41 14.674,-97.241 15.171,-97.191C15.422,-97.166 15.754,-97.17 16.188,-97.194C16.479,-97.209 16.816,-97.232 17.203,-97.261L20.149,-97.478L20.776,-93.531L21.404,-89.584L25.927,-88.184C27.507,-87.695 29.18,-87.247 30.866,-86.853C32.552,-86.458 34.251,-86.117 35.88,-85.841C37.694,-85.533 39.422,-85.306 40.951,-85.176C43.194,-84.984 45.011,-85.002 46.046,-85.278C46.389,-85.369 46.686,-85.447 46.944,-85.509C47.326,-85.602 47.624,-85.659 47.854,-85.677C48.298,-85.71 48.496,-85.591 48.583,-85.274C48.642,-85.061 48.651,-84.758 48.651,-84.352C48.651,-84.033 48.671,-83.774 48.723,-83.565C48.797,-83.272 48.937,-83.077 49.179,-82.949C49.366,-82.849 49.615,-82.791 49.942,-82.76C50.167,-82.738 50.429,-82.73 50.733,-82.73C51.057,-82.73 51.45,-82.766 51.877,-82.83C52.236,-82.883 52.619,-82.957 53.005,-83.045C53.379,-83.131 53.755,-83.231 54.115,-83.341C54.503,-83.459 54.872,-83.589 55.197,-83.725C55.497,-83.85 55.758,-83.959 55.987,-84.049C56.321,-84.181 56.585,-84.276 56.793,-84.33C57.232,-84.445 57.427,-84.381 57.513,-84.113C57.572,-83.929 57.579,-83.649 57.579,-83.264C57.579,-83.04 57.621,-82.78 57.697,-82.505C57.762,-82.27 57.852,-82.025 57.96,-81.782C58.064,-81.548 58.186,-81.317 58.319,-81.102C58.461,-80.874 58.615,-80.663 58.778,-80.484C59.056,-80.176 59.265,-79.936 59.394,-79.726C59.596,-79.397 59.601,-79.143 59.367,-78.82C59.226,-78.625 58.999,-78.406 58.676,-78.13C58.465,-77.95 58.214,-77.746 57.919,-77.51C57.673,-77.313 57.411,-77.115 57.144,-76.923C56.877,-76.732 56.605,-76.548 56.341,-76.377C56.05,-76.189 55.767,-76.019 55.509,-75.875C55.158,-75.679 54.852,-75.533 54.632,-75.462C54.444,-75.401 54.284,-75.325 54.153,-75.235C53.995,-75.125 53.88,-74.994 53.805,-74.841C53.731,-74.691 53.697,-74.519 53.703,-74.325C53.709,-74.166 53.741,-73.993 53.801,-73.805C53.848,-73.656 53.879,-73.504 53.894,-73.355C53.91,-73.197 53.908,-73.041 53.89,-72.896C53.871,-72.733 53.831,-72.582 53.773,-72.453C53.703,-72.299 53.606,-72.176 53.487,-72.102C53.384,-72.038 53.286,-72.011 53.198,-72.015C53.095,-72.02 53.005,-72.068 52.935,-72.153C52.878,-72.222 52.833,-72.314 52.805,-72.427C52.784,-72.517 52.771,-72.618 52.771,-72.731C52.771,-73.347 52.783,-73.678 52.438,-73.707C52.23,-73.724 51.89,-73.63 51.338,-73.42C51.047,-73.31 50.698,-73.168 50.277,-72.993C49.966,-72.863 49.617,-72.716 49.223,-72.551C48.698,-72.33 47.926,-72.048 47.01,-71.738C46.328,-71.508 45.566,-71.262 44.767,-71.013C44.034,-70.786 43.271,-70.557 42.509,-70.336C41.739,-70.113 40.97,-69.9 40.238,-69.706C39.702,-69.564 39.182,-69.419 38.687,-69.275C38.139,-69.115 37.623,-68.957 37.148,-68.803C36.571,-68.617 36.057,-68.438 35.628,-68.274C34.755,-67.942 34.228,-67.672 34.228,-67.531C34.228,-67.42 34.163,-67.321 34.05,-67.243C33.966,-67.184 33.856,-67.136 33.727,-67.102C33.623,-67.074 33.505,-67.055 33.379,-67.047C33.268,-67.039 33.149,-67.04 33.026,-67.051C32.802,-67.069 32.44,-67.082 31.996,-67.087C31.686,-67.091 31.336,-67.091 30.966,-67.088C30.634,-67.086 30.286,-67.081 29.935,-67.073C29.59,-67.065 29.242,-67.055 28.906,-67.042C28.554,-67.029 28.243,-67.013 27.969,-66.991C27.597,-66.961 27.291,-66.921 27.04,-66.865C26.638,-66.775 26.379,-66.644 26.219,-66.449C26.044,-66.238 25.987,-65.951 25.987,-65.56C25.987,-65.169 25.929,-64.883 25.754,-64.671C25.594,-64.476 25.335,-64.346 24.933,-64.256C24.682,-64.2 24.376,-64.159 24.004,-64.13C23.729,-64.108 23.419,-64.091 23.068,-64.078C22.725,-64.065 22.37,-64.055 22.015,-64.048C21.658,-64.041 21.302,-64.037 20.961,-64.036C20.584,-64.034 20.227,-64.036 19.908,-64.042C19.462,-64.05 19.093,-64.064 18.856,-64.086C18.378,-64.129 17.939,-64.076 17.551,-63.937C17.128,-63.786 16.765,-63.534 16.474,-63.195C16.203,-62.879 15.995,-62.488 15.861,-62.033C15.746,-61.642 15.685,-61.204 15.685,-60.726C15.685,-59.884 15.769,-59.306 16.106,-58.929C16.421,-58.577 16.957,-58.402 17.852,-58.352C18.357,-58.324 18.977,-58.336 19.736,-58.378C20.287,-58.41 20.91,-58.457 21.617,-58.517C22.113,-58.56 22.551,-58.597 22.937,-58.627C23.473,-58.668 23.909,-58.696 24.26,-58.703C24.987,-58.719 25.357,-58.649 25.52,-58.44C25.702,-58.207 25.626,-57.801 25.501,-57.148C25.464,-56.954 25.442,-56.759 25.435,-56.569C25.427,-56.367 25.435,-56.17 25.457,-55.988C25.483,-55.777 25.528,-55.585 25.59,-55.421C25.672,-55.204 25.785,-55.039 25.922,-54.955C26.173,-54.8 26.36,-54.466 26.483,-54.059C26.58,-53.735 26.636,-53.363 26.652,-52.997C26.668,-52.615 26.639,-52.239 26.566,-51.925C26.457,-51.462 26.251,-51.138 25.946,-51.138C25.851,-51.138 25.771,-51.12 25.707,-51.087C25.628,-51.048 25.575,-50.985 25.549,-50.907C25.527,-50.838 25.526,-50.755 25.55,-50.664C25.568,-50.594 25.601,-50.519 25.649,-50.44C26.21,-49.534 28.697,-48.531 31.964,-47.64C34.025,-47.078 36.398,-46.559 38.793,-46.137C41.177,-45.717 43.582,-45.392 45.725,-45.214C48.953,-44.945 51.585,-45.008 52.651,-45.579C52.928,-45.727 53.154,-45.842 53.338,-45.915C53.696,-46.057 53.897,-46.041 54.009,-45.81C54.082,-45.658 54.117,-45.413 54.133,-45.059C54.142,-44.845 54.145,-44.591 54.145,-44.294C54.145,-43.934 54.153,-43.635 54.18,-43.388C54.223,-42.995 54.311,-42.73 54.488,-42.553C54.665,-42.376 54.929,-42.287 55.322,-42.244C55.569,-42.218 55.868,-42.209 56.228,-42.209C56.555,-42.209 56.956,-42.247 57.393,-42.314C57.758,-42.37 58.148,-42.447 58.543,-42.539C58.922,-42.628 59.305,-42.731 59.673,-42.845C60.067,-42.967 60.442,-43.1 60.776,-43.239C61.194,-43.414 61.553,-43.566 61.863,-43.694C62.347,-43.893 62.706,-44.032 62.968,-44.1C63.529,-44.246 63.637,-44.066 63.553,-43.464C63.514,-43.177 63.431,-42.795 63.333,-42.307C63.277,-42.026 63.237,-41.78 63.215,-41.566C63.185,-41.261 63.191,-41.017 63.242,-40.819C63.308,-40.56 63.45,-40.378 63.682,-40.236C63.86,-40.128 64.09,-40.043 64.381,-39.967C65.09,-39.782 65.523,-39.562 65.668,-39.286C65.834,-38.969 65.619,-38.576 65.002,-38.072C64.694,-37.82 64.285,-37.541 63.774,-37.229C63.398,-37 62.967,-36.754 62.48,-36.489C62.059,-36.259 61.691,-36.054 61.37,-35.864C60.932,-35.605 60.582,-35.378 60.306,-35.164C59.872,-34.83 59.619,-34.53 59.494,-34.203C59.357,-33.845 59.373,-33.453 59.47,-32.946C59.503,-32.774 59.525,-32.61 59.536,-32.457C59.55,-32.277 59.55,-32.112 59.536,-31.965C59.517,-31.773 59.476,-31.612 59.414,-31.489C59.327,-31.317 59.198,-31.22 59.033,-31.22C58.896,-31.22 58.767,-31.285 58.656,-31.399C58.566,-31.49 58.488,-31.612 58.425,-31.758C58.373,-31.88 58.331,-32.018 58.304,-32.168C58.279,-32.302 58.266,-32.445 58.266,-32.594C58.266,-33.241 58.162,-33.646 57.852,-33.806C57.588,-33.944 57.173,-33.903 56.545,-33.685C56.2,-33.565 55.79,-33.392 55.306,-33.165C54.947,-32.996 54.546,-32.798 54.1,-32.571C53.246,-32.135 52.044,-31.683 50.573,-31.235C49.492,-30.906 48.265,-30.579 46.925,-30.262C45.772,-29.989 44.534,-29.724 43.233,-29.472C42.042,-29.241 40.797,-29.021 39.514,-28.816C39.177,-28.762 38.882,-28.709 38.626,-28.653C38.267,-28.575 37.983,-28.492 37.762,-28.394C37.415,-28.241 37.221,-28.051 37.133,-27.786C37.056,-27.554 37.059,-27.264 37.111,-26.89C37.202,-26.233 37.203,-25.862 36.737,-25.659C36.462,-25.539 36.025,-25.478 35.348,-25.45C34.96,-25.435 34.495,-25.43 33.936,-25.432C33.52,-25.433 33.051,-25.438 32.525,-25.445C32.002,-25.452 31.513,-25.45 31.058,-25.439C30.523,-25.425 30.034,-25.4 29.594,-25.362C29.032,-25.314 28.547,-25.245 28.142,-25.157C27.496,-25.017 27.049,-24.826 26.809,-24.587C26.67,-24.448 26.488,-24.315 26.279,-24.195C26.096,-24.09 25.892,-23.995 25.68,-23.915C25.474,-23.836 25.259,-23.772 25.048,-23.726C24.821,-23.676 24.599,-23.647 24.392,-23.644C23.804,-23.635 23.278,-23.536 22.812,-23.344C22.308,-23.137 21.877,-22.823 21.516,-22.402C21.192,-22.023 20.926,-21.557 20.717,-21.004C20.544,-20.543 20.41,-20.021 20.317,-19.439C20.159,-18.458 20.13,-17.764 20.39,-17.274C20.658,-16.769 21.232,-16.481 22.286,-16.319C22.864,-16.23 23.586,-16.179 24.481,-16.151C25.122,-16.131 25.852,-16.122 26.682,-16.12L30.469,-16.111L31.289,-12.658C31.376,-12.295 31.453,-11.929 31.52,-11.571C31.591,-11.192 31.651,-10.822 31.698,-10.474C31.754,-10.07 31.792,-9.695 31.81,-9.369C31.841,-8.852 31.823,-8.457 31.749,-8.265C31.549,-7.741 32.671,-7.023 34.872,-6.197C35.895,-5.813 37.151,-5.406 38.614,-4.985C39.758,-4.655 41.029,-4.317 42.416,-3.974C43.61,-3.679 44.889,-3.381 46.247,-3.081C47.413,-2.824 48.481,-2.605 49.466,-2.423C50.667,-2.201 51.742,-2.034 52.712,-1.921C53.965,-1.776 55.042,-1.721 55.991,-1.753C57.257,-1.795 58.293,-1.994 59.208,-2.342C59.461,-2.438 59.679,-2.514 59.867,-2.569C60.162,-2.654 60.383,-2.685 60.553,-2.65C60.773,-2.606 60.906,-2.451 61.001,-2.165C61.058,-1.989 61.101,-1.763 61.142,-1.483C61.193,-1.12 61.28,-0.836 61.433,-0.61C61.594,-0.373 61.828,-0.201 62.171,-0.072C62.413,0.019 62.71,0.088 63.072,0.143C63.342,0.184 63.647,0.217 63.995,0.246C64.359,0.276 64.765,0.284 65.188,0.273C65.577,0.263 65.981,0.236 66.378,0.196C66.786,0.154 67.188,0.097 67.56,0.028C67.997,-0.053 68.395,-0.151 68.715,-0.263C69.05,-0.38 69.33,-0.477 69.564,-0.549C70.008,-0.686 70.283,-0.734 70.437,-0.654C70.613,-0.562 70.625,-0.301 70.55,0.185C70.512,0.422 70.458,0.714 70.387,1.065C70.332,1.332 70.291,1.566 70.264,1.769C70.224,2.065 70.212,2.298 70.234,2.482C70.271,2.775 70.395,2.942 70.625,3.031C70.797,3.096 71.031,3.119 71.333,3.119C72.19,3.119 72.621,3.344 72.667,3.717C72.705,4.055 72.433,4.514 71.872,5.04C71.546,5.345 71.128,5.673 70.617,6.013C70.217,6.28 69.762,6.554 69.255,6.83C68.832,7.06 68.458,7.273 68.126,7.474C67.699,7.734 67.344,7.973 67.051,8.203C66.639,8.524 66.35,8.827 66.156,9.136C65.915,9.519 65.82,9.914 65.82,10.373C65.82,10.541 65.81,10.703 65.792,10.856C65.77,11.027 65.738,11.187 65.697,11.33C65.646,11.506 65.582,11.657 65.509,11.775C65.401,11.947 65.272,12.048 65.134,12.048C65.006,12.048 64.885,11.976 64.782,11.852C64.704,11.759 64.636,11.636 64.582,11.49C64.537,11.37 64.502,11.234 64.479,11.088C64.458,10.957 64.447,10.818 64.447,10.674C64.447,10.544 64.442,10.419 64.432,10.3C64.421,10.167 64.404,10.042 64.383,9.928C64.356,9.789 64.323,9.666 64.284,9.568C64.218,9.4 64.137,9.301 64.049,9.301C63.954,9.301 63.391,9.467 62.532,9.743C62.099,9.883 61.591,10.05 61.03,10.238C60.564,10.395 60.061,10.566 59.533,10.747C59.052,10.913 58.551,11.086 58.039,11.265C57.272,11.534 56.412,11.814 55.512,12.091C54.68,12.347 53.815,12.599 52.959,12.837C52.076,13.084 51.203,13.314 50.388,13.515C49.411,13.756 48.518,13.956 47.792,14.09C47.288,14.184 46.837,14.271 46.433,14.355C45.907,14.465 45.461,14.568 45.085,14.672C44.504,14.831 44.088,14.988 43.795,15.165C43.303,15.462 43.156,15.812 43.156,16.31C43.156,16.797 43.091,17.109 42.803,17.295C42.591,17.432 42.258,17.5 41.742,17.521C41.442,17.534 41.081,17.53 40.646,17.513C40.323,17.501 39.96,17.483 39.551,17.459C39.127,17.434 38.69,17.428 38.255,17.437C37.814,17.446 37.377,17.472 36.961,17.512C36.499,17.556 36.063,17.618 35.678,17.694C35.149,17.799 34.717,17.931 34.445,18.082C34.2,18.218 33.87,18.347 33.491,18.46C33.184,18.552 32.845,18.634 32.493,18.703C32.16,18.768 31.816,18.82 31.477,18.857C31.123,18.895 30.775,18.916 30.451,18.916C29.68,18.916 29.016,18.951 28.445,19.033C27.644,19.148 27.027,19.354 26.561,19.681C26.025,20.057 25.688,20.593 25.499,21.335C25.359,21.882 25.3,22.541 25.3,23.331C25.3,24.222 25.333,24.908 25.472,25.435C25.669,26.181 26.075,26.608 26.894,26.851C27.411,27.004 28.092,27.084 28.989,27.123C29.592,27.149 30.292,27.157 31.105,27.157L34.738,27.157L35.2,30.639C35.275,31.209 35.345,31.689 35.422,32.099C35.535,32.701 35.663,33.151 35.847,33.51C36.076,33.955 36.39,34.262 36.869,34.548C37.217,34.755 37.651,34.951 38.203,35.181C39.301,35.641 41.222,36.196 43.499,36.754C45.169,37.163 47.03,37.573 48.898,37.947C50.766,38.322 52.641,38.661 54.339,38.928C56.655,39.291 58.642,39.519 59.833,39.519C60.283,39.519 60.729,39.501 61.161,39.466C61.62,39.429 62.064,39.372 62.48,39.3C62.951,39.218 63.388,39.116 63.773,38.996C64.273,38.841 64.686,38.656 64.981,38.45C65.246,38.264 65.465,38.113 65.646,38.002C66.033,37.764 66.246,37.707 66.363,37.881C66.45,38.009 66.485,38.263 66.499,38.664C66.506,38.886 66.508,39.153 66.508,39.467C66.508,39.793 66.521,40.074 66.554,40.319C66.598,40.65 66.677,40.915 66.801,41.131C66.943,41.374 67.143,41.556 67.422,41.7C67.639,41.813 67.904,41.904 68.225,41.985C68.755,42.118 69.308,42.181 69.94,42.166C70.454,42.154 71.014,42.092 71.659,41.975C72.165,41.883 72.726,41.757 73.35,41.596C73.856,41.464 74.408,41.308 75.015,41.128C75.27,41.051 75.475,41.003 75.63,40.994C75.902,40.978 76.032,41.079 76.053,41.347C76.061,41.499 76.04,41.705 75.986,41.974C75.952,42.152 75.902,42.357 75.844,42.592C75.777,42.857 75.731,43.088 75.701,43.291C75.655,43.581 75.655,43.812 75.697,44.001C75.756,44.246 75.89,44.419 76.116,44.555C76.283,44.656 76.505,44.735 76.781,44.808C77.484,44.991 77.907,45.202 78.036,45.476C78.179,45.778 77.961,46.157 77.354,46.66C77.057,46.909 76.66,47.189 76.166,47.505C75.806,47.737 75.392,47.989 74.919,48.262C74.492,48.513 74.12,48.737 73.793,48.944C73.354,49.226 73.002,49.475 72.726,49.71C72.312,50.065 72.073,50.389 71.948,50.751C71.818,51.121 71.814,51.531 71.877,52.054C71.897,52.236 71.906,52.412 71.906,52.58C71.906,52.768 71.893,52.945 71.872,53.105C71.843,53.304 71.797,53.477 71.734,53.613C71.642,53.82 71.512,53.942 71.362,53.942C71.253,53.942 71.153,53.915 71.061,53.866C70.968,53.818 70.889,53.75 70.822,53.666C70.755,53.587 70.705,53.494 70.671,53.392C70.638,53.296 70.621,53.192 70.617,53.084C70.613,52.557 70.546,52.127 70.42,51.793C70.243,51.327 69.942,51.046 69.499,50.943C69.154,50.862 68.725,50.889 68.201,51.02C67.835,51.112 67.423,51.255 66.962,51.448C66.128,51.796 64.572,52.26 62.716,52.745C61.38,53.093 59.888,53.453 58.397,53.789C56.894,54.127 55.391,54.441 54.047,54.695C52.064,55.071 50.428,55.316 49.652,55.316C49.498,55.316 49.353,55.323 49.218,55.336C49.059,55.351 48.915,55.374 48.789,55.405C48.619,55.446 48.483,55.499 48.385,55.562C48.229,55.664 48.176,55.789 48.259,55.925C48.563,56.416 48.4,56.866 47.918,57.215C47.589,57.452 47.113,57.642 46.536,57.766C46.093,57.861 45.59,57.917 45.049,57.926C44.576,57.934 44.073,57.905 43.556,57.834C43.217,57.787 42.912,57.751 42.635,57.725C42.281,57.692 41.974,57.675 41.709,57.677C41.324,57.68 41.026,57.721 40.795,57.804C40.462,57.923 40.268,58.128 40.152,58.428C40.038,58.727 39.762,58.952 39.281,59.112C38.987,59.209 38.616,59.283 38.159,59.336C37.826,59.374 37.446,59.401 37.017,59.417C36.668,59.43 36.287,59.437 35.871,59.437C35.402,59.437 34.977,59.445 34.591,59.462C34.107,59.483 33.686,59.519 33.315,59.571C32.816,59.642 32.411,59.743 32.076,59.881C31.63,60.064 31.311,60.312 31.064,60.638C30.85,60.919 30.669,61.281 30.524,61.675C30.391,62.038 30.289,62.428 30.222,62.807C30.148,63.226 30.117,63.632 30.133,63.975C30.16,64.538 30.315,64.931 30.622,64.93C30.751,64.93 30.849,65.794 30.905,67.215C30.931,67.88 30.948,68.667 30.956,69.544C30.962,70.265 30.961,71.047 30.953,71.873C30.946,72.618 30.933,73.398 30.913,74.202L30.688,83.475L36.407,83.534C37.96,83.549 39.585,83.611 41.203,83.706C42.832,83.803 44.454,83.935 45.986,84.091C47.729,84.268 49.356,84.477 50.746,84.701C53.424,85.133 55.219,85.621 55.261,86.05C55.277,86.21 55.297,86.466 55.317,86.779C55.332,86.998 55.347,87.246 55.361,87.509C55.374,87.744 55.387,87.99 55.399,88.238C55.412,88.484 55.423,88.73 55.433,88.969L55.519,91.029L72.688,91.029L72.697,93.261C72.697,93.603 72.713,94.017 72.743,94.468C72.764,94.851 72.797,95.259 72.835,95.672C72.872,96.075 72.914,96.483 72.96,96.873C73.015,97.302 73.069,97.709 73.128,98.069L73.555,100.644L-12.774,100.644C-20.662,100.644 -27.831,100.644 -34.346,100.642C-42.524,100.639 -49.672,100.634 -55.919,100.625C-64.814,100.612 -71.881,100.591 -77.491,100.556C-97.388,100.432 -98.96,100.138 -98.763,99.442C-98.697,99.208 -98.609,98.786 -98.512,98.25C-98.447,97.892 -98.378,97.484 -98.309,97.048C-98.248,96.663 -98.187,96.257 -98.128,95.843C-98.071,95.442 -98.016,95.035 -97.965,94.635L-97.507,91.029L-79.387,91.029L-79.466,88.647C-79.474,88.392 -79.476,88.134 -79.471,87.882C-79.466,87.618 -79.453,87.36 -79.435,87.119C-79.414,86.839 -79.386,86.582 -79.35,86.358C-79.296,86.014 -79.227,85.753 -79.147,85.625C-78.968,85.335 -76.978,84.954 -74.215,84.594C-72.709,84.397 -70.974,84.206 -69.176,84.04C-67.5,83.885 -65.77,83.751 -64.122,83.652C-62.263,83.541 -60.509,83.475 -59.057,83.475L-54.368,83.475L-54.342,77.121C-54.339,76.385 -54.329,75.623 -54.312,74.866C-54.295,74.099 -54.272,73.338 -54.243,72.611C-54.211,71.802 -54.174,71.037 -54.132,70.358C-54.072,69.394 -54.004,68.605 -53.932,68.111C-53.898,67.874 -53.87,67.657 -53.848,67.458C-53.821,67.209 -53.804,66.991 -53.798,66.801C-53.787,66.519 -53.799,66.301 -53.834,66.144C-53.902,65.838 -54.057,65.768 -54.301,65.92C-54.406,65.985 -54.506,66.017 -54.596,66.02C-54.706,66.024 -54.802,65.984 -54.878,65.904C-54.941,65.838 -54.989,65.744 -55.02,65.627C-55.043,65.537 -55.055,65.432 -55.055,65.315C-55.055,65.194 -55.042,65.077 -55.018,64.968C-54.992,64.848 -54.952,64.737 -54.901,64.641C-54.843,64.529 -54.77,64.436 -54.687,64.367C-54.592,64.289 -54.483,64.244 -54.368,64.244C-54.218,64.244 -54.078,64.077 -53.964,63.796C-53.897,63.629 -53.839,63.422 -53.793,63.185C-53.756,62.993 -53.727,62.781 -53.708,62.555C-53.691,62.353 -53.682,62.14 -53.682,61.921C-53.682,61.27 -53.757,60.742 -53.937,60.318C-54.152,59.81 -54.515,59.451 -55.076,59.206C-55.491,59.026 -56.013,58.908 -56.662,58.838C-57.136,58.788 -57.677,58.763 -58.294,58.76C-58.514,58.758 -58.748,58.712 -58.98,58.631C-59.195,58.556 -59.408,58.451 -59.609,58.323C-59.807,58.198 -59.993,58.049 -60.155,57.885C-60.326,57.713 -60.47,57.524 -60.576,57.327C-60.85,56.814 -61.088,56.491 -61.524,56.314C-61.849,56.183 -62.283,56.133 -62.924,56.146C-63.312,56.153 -63.777,56.185 -64.34,56.235C-64.754,56.272 -65.222,56.32 -65.752,56.377C-66.229,56.428 -66.655,56.472 -67.035,56.508C-67.54,56.556 -67.964,56.591 -68.32,56.608C-68.921,56.638 -69.329,56.62 -69.604,56.544C-70.091,56.409 -70.165,56.088 -70.165,55.517C-70.165,54.961 -70.446,54.559 -71.468,54.112C-71.94,53.906 -72.57,53.69 -73.402,53.446C-73.964,53.281 -74.617,53.103 -75.376,52.905C-75.971,52.751 -76.63,52.585 -77.361,52.404C-78.259,52.181 -79.21,51.927 -80.168,51.656C-81.103,51.391 -82.045,51.11 -82.952,50.825C-83.93,50.519 -84.867,50.208 -85.71,49.912C-86.812,49.524 -87.753,49.16 -88.416,48.857C-88.846,48.659 -89.229,48.485 -89.569,48.332C-90.029,48.125 -90.413,47.959 -90.734,47.831C-91.316,47.599 -91.693,47.494 -91.951,47.506C-92.367,47.527 -92.475,47.854 -92.632,48.455C-92.735,48.852 -92.857,49.156 -92.985,49.373C-93.243,49.809 -93.53,49.893 -93.76,49.663C-93.918,49.505 -94.049,49.201 -94.126,48.761C-94.175,48.486 -94.203,48.157 -94.203,47.779C-94.203,47.418 -94.228,47.101 -94.286,46.817C-94.356,46.478 -94.471,46.187 -94.645,45.925C-94.812,45.673 -95.032,45.449 -95.317,45.237C-95.548,45.064 -95.821,44.9 -96.141,44.734C-96.386,44.607 -96.64,44.462 -96.892,44.307C-97.138,44.155 -97.381,43.994 -97.613,43.831C-97.861,43.655 -98.095,43.478 -98.3,43.309C-98.564,43.09 -98.781,42.885 -98.924,42.713C-99.065,42.544 -99.173,42.398 -99.246,42.27C-99.368,42.057 -99.393,41.893 -99.311,41.753C-99.242,41.636 -99.099,41.535 -98.874,41.436C-98.735,41.374 -98.563,41.313 -98.36,41.248C-98.083,41.16 -97.852,41.043 -97.662,40.889C-97.461,40.725 -97.307,40.519 -97.195,40.262C-97.1,40.047 -97.035,39.795 -96.996,39.5C-96.964,39.266 -96.95,39.005 -96.95,38.713C-96.95,38.459 -96.945,38.236 -96.935,38.043C-96.919,37.762 -96.891,37.544 -96.844,37.379C-96.761,37.087 -96.619,36.965 -96.387,36.971C-96.223,36.976 -96.013,37.045 -95.748,37.164C-95.522,37.265 -95.137,37.376 -94.657,37.483C-94.324,37.558 -93.945,37.632 -93.54,37.7C-93.18,37.761 -92.8,37.817 -92.415,37.867C-92.038,37.916 -91.656,37.958 -91.284,37.991C-90.857,38.028 -90.486,38.06 -90.163,38.081C-89.693,38.114 -89.327,38.125 -89.04,38.106C-88.496,38.069 -88.242,37.922 -88.123,37.592C-88.032,37.339 -88.021,36.978 -88.021,36.477C-88.021,36.124 -88.02,35.841 -88.002,35.621C-87.966,35.175 -87.861,34.995 -87.558,35.035C-87.374,35.058 -87.118,35.163 -86.759,35.337C-86.544,35.441 -86.291,35.572 -85.995,35.724C-84.926,36.277 -83.533,36.598 -81.716,36.682C-80.459,36.74 -79,36.685 -77.305,36.516C-75.993,36.385 -74.539,36.186 -72.929,35.917C-71.592,35.694 -70.147,35.424 -68.586,35.105C-67.331,34.85 -66.206,34.609 -65.2,34.376C-63.893,34.075 -62.785,33.789 -61.849,33.503C-60.423,33.068 -59.396,32.635 -58.671,32.155C-57.498,31.378 -57.116,30.479 -57.116,29.248C-57.116,28.419 -57.019,27.843 -56.65,27.435C-56.326,27.075 -55.79,26.846 -54.922,26.688C-54.411,26.596 -53.785,26.528 -53.019,26.475C-52.459,26.436 -51.825,26.403 -51.106,26.374L-47.501,26.225L-47.501,23.394C-47.501,22.643 -47.541,22.009 -47.638,21.478C-47.778,20.718 -48.034,20.167 -48.458,19.775C-48.868,19.395 -49.436,19.164 -50.206,19.039C-50.742,18.952 -51.376,18.916 -52.123,18.916C-52.479,18.916 -52.8,18.907 -53.091,18.89C-53.459,18.868 -53.777,18.831 -54.052,18.777C-54.43,18.702 -54.726,18.596 -54.958,18.451C-55.249,18.269 -55.438,18.027 -55.557,17.714C-55.8,17.077 -56.047,16.589 -56.362,16.222C-56.724,15.802 -57.177,15.542 -57.818,15.401C-58.275,15.301 -58.828,15.261 -59.512,15.268C-60.006,15.272 -60.569,15.301 -61.213,15.347C-61.819,15.391 -62.369,15.41 -62.866,15.403C-63.499,15.395 -64.046,15.345 -64.511,15.251C-65.167,15.119 -65.661,14.901 -66.007,14.59C-66.413,14.227 -66.615,13.737 -66.635,13.112C-66.64,12.958 -66.999,12.719 -67.596,12.444C-67.907,12.301 -68.282,12.148 -68.704,11.993C-69.053,11.865 -69.434,11.734 -69.837,11.607C-70.204,11.491 -70.589,11.377 -70.985,11.268C-72.097,10.963 -73.432,10.536 -74.933,10.011C-76.132,9.591 -77.437,9.109 -78.819,8.574C-80.047,8.098 -81.335,7.582 -82.664,7.031C-83.905,6.517 -85.182,5.974 -86.476,5.408C-86.633,5.34 -86.771,5.326 -86.889,5.364C-87.013,5.404 -87.114,5.501 -87.188,5.65C-87.241,5.758 -87.281,5.894 -87.306,6.056C-87.325,6.182 -87.335,6.324 -87.335,6.48C-87.335,6.634 -87.348,6.783 -87.372,6.922C-87.398,7.078 -87.438,7.222 -87.489,7.35C-87.551,7.503 -87.627,7.633 -87.715,7.73C-87.828,7.855 -87.96,7.927 -88.099,7.927C-88.279,7.927 -88.416,7.801 -88.506,7.574C-88.565,7.427 -88.603,7.238 -88.62,7.012C-88.634,6.841 -88.634,6.648 -88.622,6.438C-88.611,6.26 -88.591,6.069 -88.562,5.867C-88.534,5.68 -88.514,5.5 -88.501,5.328C-88.486,5.135 -88.479,4.953 -88.481,4.786C-88.482,4.58 -88.496,4.397 -88.522,4.246C-88.569,3.971 -88.655,3.806 -88.774,3.806C-89.015,3.806 -89.543,3.489 -90.163,3.026C-90.558,2.732 -90.99,2.378 -91.409,2.011C-91.829,1.642 -92.235,1.259 -92.577,0.906C-93.13,0.335 -93.516,-0.156 -93.516,-0.376C-93.516,-0.483 -93.471,-0.584 -93.391,-0.673C-93.325,-0.748 -93.234,-0.813 -93.125,-0.865C-93.033,-0.91 -92.928,-0.946 -92.813,-0.969C-92.71,-0.99 -92.6,-1.002 -92.486,-1.002C-92.25,-1.002 -92.055,-1.082 -91.901,-1.244C-91.773,-1.378 -91.673,-1.569 -91.6,-1.816C-91.547,-1.998 -91.508,-2.212 -91.484,-2.457C-91.465,-2.653 -91.455,-2.87 -91.455,-3.108C-91.455,-3.405 -91.451,-3.659 -91.438,-3.876C-91.419,-4.215 -91.378,-4.46 -91.301,-4.627C-91.185,-4.877 -90.987,-4.952 -90.653,-4.909C-90.456,-4.883 -90.213,-4.816 -89.91,-4.719C-89.392,-4.553 -88.779,-4.377 -88.132,-4.203C-87.547,-4.047 -86.934,-3.893 -86.336,-3.752C-85.699,-3.602 -85.078,-3.465 -84.528,-3.355C-83.702,-3.191 -83.033,-3.085 -82.699,-3.078C-82.518,-3.075 -82.355,-3.185 -82.221,-3.382C-82.127,-3.522 -82.047,-3.704 -81.985,-3.921C-81.936,-4.094 -81.898,-4.288 -81.873,-4.5C-81.852,-4.685 -81.84,-4.882 -81.84,-5.09L-81.84,-7.119L-79.826,-5.963C-78.982,-5.478 -78.372,-5.211 -77.207,-5.158C-76.526,-5.127 -75.655,-5.169 -74.438,-5.284C-73.671,-5.356 -72.765,-5.457 -71.682,-5.588C-70.869,-5.685 -69.958,-5.798 -68.929,-5.929C-67.902,-6.058 -66.89,-6.202 -65.914,-6.355C-64.864,-6.519 -63.856,-6.694 -62.914,-6.875C-61.82,-7.084 -60.816,-7.302 -59.937,-7.519C-58.668,-7.832 -57.663,-8.145 -57.036,-8.433C-56.813,-8.534 -56.606,-8.634 -56.416,-8.731C-56.19,-8.846 -55.988,-8.956 -55.811,-9.06C-55.57,-9.201 -55.378,-9.331 -55.24,-9.443C-54.933,-9.694 -54.904,-9.856 -55.227,-9.872C-55.618,-9.891 -55.912,-10.015 -56.106,-10.208C-56.329,-10.43 -56.422,-10.743 -56.382,-11.095C-56.35,-11.376 -56.234,-11.68 -56.032,-11.983C-55.87,-12.224 -55.654,-12.465 -55.383,-12.69C-55.244,-12.805 -55.12,-12.945 -55.015,-13.099C-54.912,-13.251 -54.827,-13.417 -54.763,-13.588C-54.697,-13.765 -54.655,-13.947 -54.639,-14.124C-54.622,-14.317 -54.638,-14.503 -54.691,-14.67C-54.873,-15.245 -54.464,-15.823 -53.687,-16.311C-53.186,-16.626 -52.532,-16.903 -51.785,-17.118C-51.161,-17.298 -50.472,-17.433 -49.753,-17.51C-49.079,-17.583 -48.38,-17.603 -47.684,-17.561L-44.753,-17.381L-44.753,-20.159C-44.753,-20.834 -44.761,-21.348 -44.829,-21.768C-44.924,-22.35 -45.135,-22.749 -45.602,-23.136C-45.923,-23.402 -46.366,-23.662 -46.975,-23.973C-47.38,-24.179 -47.859,-24.408 -48.425,-24.676C-49.032,-24.963 -49.623,-25.212 -50.208,-25.424C-50.83,-25.65 -51.444,-25.835 -52.06,-25.981C-52.689,-26.13 -53.321,-26.239 -53.965,-26.31C-54.594,-26.379 -55.234,-26.413 -55.897,-26.413C-56.368,-26.413 -56.792,-26.42 -57.174,-26.437C-57.662,-26.459 -58.082,-26.496 -58.447,-26.551C-58.948,-26.628 -59.345,-26.74 -59.672,-26.897C-60.081,-27.093 -60.381,-27.359 -60.637,-27.713C-60.834,-27.983 -61.392,-28.357 -62.184,-28.773C-62.672,-29.03 -63.251,-29.303 -63.888,-29.579C-64.434,-29.814 -65.024,-30.052 -65.637,-30.282C-66.215,-30.498 -66.813,-30.708 -67.417,-30.903C-68.177,-31.149 -68.997,-31.425 -69.834,-31.716C-70.631,-31.992 -71.445,-32.282 -72.235,-32.571C-73.071,-32.877 -73.882,-33.18 -74.621,-33.467C-75.551,-33.826 -76.368,-34.157 -76.983,-34.427C-77.371,-34.596 -77.724,-34.747 -78.046,-34.879C-78.455,-35.045 -78.813,-35.181 -79.127,-35.287C-79.587,-35.443 -79.953,-35.535 -80.246,-35.567C-80.774,-35.625 -81.071,-35.49 -81.264,-35.185C-81.331,-35.079 -81.396,-34.966 -81.457,-34.849C-81.517,-34.733 -81.572,-34.614 -81.621,-34.498C-81.675,-34.371 -81.72,-34.248 -81.755,-34.134C-81.801,-33.985 -81.828,-33.853 -81.83,-33.755C-81.831,-33.662 -81.863,-33.593 -81.918,-33.549C-81.971,-33.506 -82.047,-33.486 -82.137,-33.492C-82.204,-33.495 -82.28,-33.513 -82.361,-33.544C-82.427,-33.57 -82.496,-33.605 -82.568,-33.649C-82.708,-33.736 -82.816,-33.917 -82.888,-34.162C-82.939,-34.337 -82.972,-34.543 -82.984,-34.77C-82.995,-34.963 -82.991,-35.171 -82.972,-35.387C-82.954,-35.586 -82.922,-35.791 -82.877,-35.996C-82.798,-36.358 -82.747,-36.658 -82.736,-36.914C-82.719,-37.282 -82.783,-37.559 -82.958,-37.798C-83.11,-38.004 -83.346,-38.182 -83.686,-38.364C-83.918,-38.488 -84.197,-38.613 -84.531,-38.752C-84.981,-38.938 -85.389,-39.132 -85.753,-39.329C-86.199,-39.572 -86.578,-39.819 -86.885,-40.065C-87.325,-40.418 -87.616,-40.767 -87.743,-41.092C-87.915,-41.535 -87.78,-41.934 -87.295,-42.234C-87.097,-42.356 -86.933,-42.549 -86.808,-42.8C-86.706,-43.003 -86.629,-43.245 -86.578,-43.518C-86.535,-43.748 -86.511,-44 -86.507,-44.271C-86.503,-44.509 -86.515,-44.761 -86.543,-45.025C-86.571,-45.292 -86.592,-45.525 -86.605,-45.728C-86.624,-46.024 -86.625,-46.256 -86.603,-46.431C-86.56,-46.769 -86.432,-46.899 -86.179,-46.882C-86.012,-46.871 -85.792,-46.796 -85.508,-46.676C-85.261,-46.57 -84.805,-46.454 -84.221,-46.339C-83.831,-46.262 -83.385,-46.185 -82.907,-46.114C-82.486,-46.051 -82.041,-45.992 -81.586,-45.939C-81.147,-45.888 -80.701,-45.843 -80.261,-45.806L-76.277,-45.473L-76.757,-47.386C-76.833,-47.688 -76.897,-47.942 -76.943,-48.151C-77.045,-48.607 -77.066,-48.849 -76.96,-48.91C-76.858,-48.968 -76.638,-48.857 -76.257,-48.605C-76.078,-48.486 -75.863,-48.336 -75.608,-48.157C-74.696,-47.518 -72.89,-47.183 -70.569,-47.129C-69.029,-47.092 -67.261,-47.18 -65.377,-47.384C-63.729,-47.563 -61.992,-47.831 -60.24,-48.183C-58.549,-48.523 -56.844,-48.943 -55.193,-49.436C-54.796,-49.555 -54.442,-49.665 -54.127,-49.77C-53.713,-49.906 -53.367,-50.034 -53.079,-50.157C-52.625,-50.35 -52.318,-50.533 -52.127,-50.728C-51.837,-51.022 -51.812,-51.343 -51.945,-51.764C-52.002,-51.944 -52.026,-52.139 -52.019,-52.339C-52.012,-52.529 -51.978,-52.722 -51.919,-52.909C-51.86,-53.094 -51.778,-53.273 -51.674,-53.435C-51.568,-53.601 -51.44,-53.75 -51.294,-53.871C-51.126,-54.011 -50.966,-54.216 -50.825,-54.462C-50.707,-54.668 -50.602,-54.903 -50.515,-55.152C-50.433,-55.386 -50.366,-55.634 -50.32,-55.883C-50.273,-56.137 -50.248,-56.392 -50.248,-56.636C-50.248,-57.398 -50.091,-57.962 -49.677,-58.372C-49.322,-58.724 -48.779,-58.963 -47.982,-59.119C-47.47,-59.219 -46.854,-59.285 -46.116,-59.324C-45.561,-59.353 -44.937,-59.367 -44.238,-59.369C-43.769,-59.371 -43.374,-59.373 -43.044,-59.386C-42.5,-59.407 -42.128,-59.458 -41.873,-59.582C-41.53,-59.748 -41.4,-60.048 -41.35,-60.589C-41.321,-60.9 -41.319,-61.291 -41.319,-61.783C-41.319,-62.007 -41.328,-62.224 -41.343,-62.431C-41.36,-62.661 -41.386,-62.878 -41.42,-63.075C-41.461,-63.317 -41.514,-63.53 -41.575,-63.704C-41.682,-64.007 -41.814,-64.187 -41.958,-64.187C-42.072,-64.187 -42.224,-64.23 -42.393,-64.306C-42.519,-64.362 -42.655,-64.436 -42.792,-64.524C-42.916,-64.602 -43.041,-64.691 -43.162,-64.788C-43.281,-64.883 -43.396,-64.984 -43.503,-65.09C-43.843,-65.429 -44.847,-65.845 -46.15,-66.248C-46.993,-66.51 -47.963,-66.766 -48.958,-66.993C-49.914,-67.211 -50.894,-67.403 -51.811,-67.546C-52.918,-67.719 -53.934,-67.821 -54.702,-67.816C-54.944,-67.814 -55.19,-67.829 -55.433,-67.859C-55.68,-67.89 -55.923,-67.935 -56.152,-67.993C-56.406,-68.057 -56.642,-68.136 -56.845,-68.226C-57.114,-68.345 -57.326,-68.482 -57.45,-68.629C-57.709,-68.937 -59.053,-69.615 -61.399,-70.626C-62.534,-71.116 -63.904,-71.683 -65.5,-72.325C-66.741,-72.825 -68.118,-73.369 -69.628,-73.957C-70.914,-74.457 -72.295,-74.989 -73.771,-75.551C-73.928,-75.611 -74.069,-75.653 -74.194,-75.676C-74.371,-75.709 -74.515,-75.704 -74.63,-75.661C-74.766,-75.609 -74.86,-75.503 -74.914,-75.342C-74.953,-75.225 -74.972,-75.08 -74.972,-74.905C-74.972,-74.782 -74.985,-74.663 -75.009,-74.552C-75.035,-74.429 -75.074,-74.315 -75.124,-74.216C-75.182,-74.1 -75.254,-74.003 -75.336,-73.932C-75.432,-73.849 -75.542,-73.802 -75.659,-73.802C-75.802,-73.802 -75.937,-73.924 -76.05,-74.131C-76.123,-74.265 -76.187,-74.435 -76.238,-74.631C-76.28,-74.791 -76.314,-74.968 -76.337,-75.157C-76.357,-75.326 -76.369,-75.505 -76.372,-75.69C-76.378,-76.121 -76.447,-76.51 -76.598,-76.881C-76.739,-77.229 -76.952,-77.562 -77.252,-77.902C-77.491,-78.172 -77.784,-78.446 -78.141,-78.735C-78.425,-78.966 -78.75,-79.206 -79.119,-79.461C-79.569,-79.772 -79.963,-80.072 -80.299,-80.359C-80.743,-80.737 -81.088,-81.092 -81.333,-81.42C-81.732,-81.955 -81.865,-82.418 -81.726,-82.789C-81.591,-83.149 -81.2,-83.424 -80.546,-83.596C-80.292,-83.662 -80.088,-83.746 -79.93,-83.859C-79.741,-83.993 -79.618,-84.168 -79.553,-84.4C-79.501,-84.584 -79.486,-84.804 -79.504,-85.069C-79.517,-85.265 -79.548,-85.486 -79.596,-85.736C-79.626,-85.892 -79.652,-86.043 -79.674,-86.187C-79.699,-86.349 -79.719,-86.502 -79.735,-86.642C-79.753,-86.815 -79.765,-86.97 -79.768,-87.1C-79.776,-87.369 -79.75,-87.532 -79.689,-87.53C-79.629,-87.528 -79.291,-87.441 -78.776,-87.297C-78.516,-87.224 -78.209,-87.136 -77.871,-87.037C-77.589,-86.955 -77.285,-86.866 -76.967,-86.771C-76.676,-86.685 -76.374,-86.593 -76.065,-86.5C-75.409,-86.301 -74.807,-86.131 -74.255,-85.99C-73.562,-85.812 -72.95,-85.679 -72.418,-85.593C-71.62,-85.463 -70.999,-85.435 -70.546,-85.51C-69.753,-85.641 -69.477,-86.087 -69.677,-86.851C-69.767,-87.195 -69.836,-87.466 -69.868,-87.669C-69.932,-88.086 -69.838,-88.217 -69.437,-88.113C-69.249,-88.064 -68.993,-87.963 -68.653,-87.814C-68.433,-87.719 -68.179,-87.603 -67.887,-87.47C-67.206,-87.16 -65.246,-87.153 -62.725,-87.358C-61.164,-87.484 -59.388,-87.691 -57.568,-87.957C-55.855,-88.208 -54.103,-88.51 -52.453,-88.847C-50.57,-89.231 -48.821,-89.659 -47.417,-90.104C-46.992,-90.239 -46.617,-90.358 -46.289,-90.465C-45.82,-90.617 -45.448,-90.741 -45.167,-90.845C-44.369,-91.14 -44.31,-91.266 -44.847,-91.369C-45.106,-91.417 -45.503,-91.461 -46.023,-91.515C-46.331,-91.548 -46.599,-91.581 -46.828,-91.618C-47.166,-91.674 -47.422,-91.739 -47.611,-91.826C-47.908,-91.964 -48.036,-92.157 -48.049,-92.453C-48.058,-92.662 -48.009,-92.923 -47.921,-93.252C-47.852,-93.511 -47.786,-93.876 -47.728,-94.302C-47.683,-94.627 -47.644,-94.988 -47.611,-95.364C-47.58,-95.711 -47.556,-96.071 -47.538,-96.429C-47.52,-96.794 -47.509,-97.155 -47.508,-97.496L-47.496,-100.243L-42.911,-100.391C-42.382,-100.409 -41.891,-100.434 -41.438,-100.468C-40.898,-100.509 -40.41,-100.561 -39.971,-100.627C-39.412,-100.71 -38.934,-100.815 -38.532,-100.941C-37.946,-101.125 -37.522,-101.356 -37.246,-101.636C-37.063,-101.822 -36.915,-101.98 -36.802,-102.118C-36.612,-102.352 -36.523,-102.531 -36.536,-102.703C-36.55,-102.875 -36.666,-103.038 -36.889,-103.239C-37.023,-103.359 -37.194,-103.492 -37.404,-103.648C-37.648,-103.829 -38.144,-104.047 -38.796,-104.274C-39.225,-104.423 -39.721,-104.575 -40.259,-104.723C-40.728,-104.853 -41.229,-104.979 -41.743,-105.096C-42.235,-105.209 -42.74,-105.313 -43.242,-105.405C-44.897,-105.707 -47.005,-106.217 -49.298,-106.848C-51.209,-107.375 -53.25,-107.986 -55.264,-108.632C-57.308,-109.286 -59.325,-109.977 -61.155,-110.651C-63.486,-111.511 -65.513,-112.344 -66.902,-113.043C-67.317,-113.251 -67.688,-113.437 -68.02,-113.601C-68.461,-113.818 -68.834,-113.997 -69.148,-114.139C-69.698,-114.387 -70.071,-114.522 -70.324,-114.552C-70.806,-114.61 -70.851,-114.288 -70.851,-113.646C-70.851,-113.501 -70.863,-113.361 -70.884,-113.229C-70.907,-113.082 -70.942,-112.946 -70.986,-112.825C-71.04,-112.679 -71.108,-112.554 -71.186,-112.46C-71.289,-112.335 -71.41,-112.262 -71.539,-112.262C-71.685,-112.262 -71.821,-112.401 -71.933,-112.637C-72.002,-112.784 -72.062,-112.969 -72.11,-113.18C-72.148,-113.352 -72.178,-113.543 -72.198,-113.745C-72.216,-113.927 -72.225,-114.118 -72.225,-114.316C-72.225,-114.743 -72.264,-115.114 -72.356,-115.45C-72.457,-115.819 -72.622,-116.147 -72.871,-116.465C-73.081,-116.732 -73.35,-116.992 -73.69,-117.262C-73.956,-117.473 -74.266,-117.69 -74.625,-117.922C-74.869,-118.08 -75.098,-118.244 -75.308,-118.408C-75.544,-118.593 -75.755,-118.779 -75.939,-118.962C-76.163,-119.185 -76.345,-119.402 -76.476,-119.604C-76.678,-119.917 -76.759,-120.19 -76.685,-120.388C-76.627,-120.544 -76.573,-120.762 -76.525,-121.016C-76.489,-121.213 -76.456,-121.43 -76.428,-121.657C-76.403,-121.868 -76.383,-122.086 -76.368,-122.303C-76.354,-122.525 -76.346,-122.744 -76.346,-122.951C-76.346,-123.413 -76.33,-123.744 -76.234,-123.97C-76.113,-124.253 -75.864,-124.373 -75.359,-124.383C-75.093,-124.388 -74.757,-124.362 -74.331,-124.313C-74.035,-124.28 -73.696,-124.235 -73.307,-124.182C-72.89,-124.124 -72.423,-124.083 -71.936,-124.057C-71.486,-124.032 -71.019,-124.021 -70.558,-124.022C-70.084,-124.024 -69.616,-124.039 -69.181,-124.068C-68.665,-124.102 -68.194,-124.155 -67.813,-124.226C-67.475,-124.29 -67.181,-124.354 -66.925,-124.423C-66.574,-124.518 -66.296,-124.622 -66.078,-124.747C-65.779,-124.919 -65.593,-125.131 -65.485,-125.412C-65.392,-125.653 -65.357,-125.945 -65.357,-126.307C-65.357,-126.698 -65.341,-126.992 -65.274,-127.209C-65.18,-127.515 -64.985,-127.666 -64.592,-127.711C-64.363,-127.737 -64.066,-127.727 -63.684,-127.691C-63.425,-127.666 -63.126,-127.629 -62.782,-127.583C-61.237,-127.376 -57.753,-128.209 -53.367,-129.679C-50.614,-130.601 -47.505,-131.774 -44.296,-133.099C-41.362,-134.312 -38.344,-135.65 -35.439,-137.04C-32.372,-138.507 -29.43,-140.031 -26.845,-141.523C-26.221,-141.882 -25.667,-142.205 -25.175,-142.498C-24.526,-142.886 -23.984,-143.222 -23.535,-143.522C-22.938,-143.919 -22.504,-144.253 -22.192,-144.56C-22.134,-144.617 -22.08,-144.673 -22.031,-144.728C-21.507,-145.312 -21.428,-145.815 -21.498,-146.516C-21.556,-147.09 -21.547,-147.609 -21.467,-148.077C-21.373,-148.624 -21.182,-149.102 -20.887,-149.519C-20.602,-149.922 -20.22,-150.269 -19.737,-150.566C-19.334,-150.813 -18.859,-151.025 -18.312,-151.208C-18.063,-151.291 -17.839,-151.379 -17.641,-151.472C-17.396,-151.585 -17.189,-151.707 -17.02,-151.836C-16.802,-152.003 -16.647,-152.183 -16.553,-152.377C-16.448,-152.594 -16.42,-152.828 -16.465,-153.081C-16.502,-153.281 -16.491,-153.54 -16.441,-153.828C-16.401,-154.056 -16.337,-154.303 -16.253,-154.554C-16.175,-154.786 -16.081,-155.021 -15.972,-155.249C-15.863,-155.479 -15.741,-155.701 -15.607,-155.905C-15.457,-156.134 -15.314,-156.403 -15.184,-156.693C-15.064,-156.959 -14.956,-157.243 -14.864,-157.529C-14.769,-157.821 -14.692,-158.115 -14.635,-158.395C-14.571,-158.717 -14.534,-159.022 -14.534,-159.284C-14.534,-159.574 -14.548,-159.819 -14.583,-160.024C-14.634,-160.321 -14.728,-160.536 -14.885,-160.689C-15.041,-160.839 -15.258,-160.929 -15.556,-160.978C-15.762,-161.011 -16.007,-161.025 -16.297,-161.025C-16.605,-161.025 -16.859,-161.036 -17.067,-161.066C-17.397,-161.115 -17.611,-161.214 -17.739,-161.4C-17.855,-161.567 -17.901,-161.806 -17.899,-162.143C-17.897,-162.358 -17.876,-162.612 -17.842,-162.913C-17.81,-163.192 -17.763,-163.438 -17.7,-163.655C-17.621,-163.926 -17.516,-164.151 -17.38,-164.336C-17.228,-164.543 -17.038,-164.7 -16.804,-164.814C-16.598,-164.915 -16.358,-164.982 -16.08,-165.022C-15.588,-165.091 -15.211,-165.263 -14.944,-165.489C-14.586,-165.793 -14.427,-166.195 -14.457,-166.583C-14.488,-166.97 -14.707,-167.343 -15.106,-167.592C-15.403,-167.777 -15.802,-167.893 -16.297,-167.893C-16.605,-167.893 -16.859,-167.903 -17.067,-167.934C-17.397,-167.983 -17.611,-168.082 -17.739,-168.268C-17.855,-168.435 -17.901,-168.674 -17.899,-169.012C-17.897,-169.226 -17.876,-169.48 -17.842,-169.782C-17.81,-170.06 -17.763,-170.306 -17.7,-170.523C-17.621,-170.794 -17.516,-171.019 -17.38,-171.204C-17.228,-171.411 -17.038,-171.568 -16.804,-171.682C-16.598,-171.783 -16.358,-171.85 -16.08,-171.89C-15.588,-171.96 -15.211,-172.131 -14.944,-172.357C-14.586,-172.661 -14.427,-173.063 -14.457,-173.451C-14.488,-173.838 -14.707,-174.211 -15.106,-174.46C-15.403,-174.645 -15.802,-174.76 -16.297,-174.76C-16.605,-174.76 -16.859,-174.771 -17.067,-174.802C-17.397,-174.851 -17.611,-174.95 -17.739,-175.135C-17.855,-175.304 -17.901,-175.543 -17.899,-175.879C-17.897,-176.094 -17.876,-176.348 -17.842,-176.649C-17.81,-176.928 -17.763,-177.174 -17.7,-177.391C-17.621,-177.662 -17.516,-177.887 -17.38,-178.072C-17.228,-178.279 -17.038,-178.436 -16.804,-178.55C-16.598,-178.651 -16.358,-178.718 -16.08,-178.758C-15.595,-178.827 -15.221,-178.997 -14.956,-179.224C-14.603,-179.523 -14.44,-179.921 -14.461,-180.305C-14.481,-180.693 -14.688,-181.07 -15.075,-181.321C-15.366,-181.51 -15.759,-181.629 -16.251,-181.629C-16.525,-181.629 -16.758,-181.643 -16.956,-181.676C-17.236,-181.724 -17.445,-181.81 -17.599,-181.948C-17.759,-182.092 -17.858,-182.293 -17.913,-182.567C-17.952,-182.763 -17.968,-182.996 -17.968,-183.271C-17.968,-183.548 -17.942,-183.793 -17.885,-184.008C-17.817,-184.265 -17.707,-184.481 -17.548,-184.663C-17.395,-184.838 -17.199,-184.982 -16.952,-185.1C-16.752,-185.197 -16.519,-185.277 -16.251,-185.345C-15.876,-185.439 -15.545,-185.644 -15.272,-185.903C-14.99,-186.171 -14.769,-186.502 -14.628,-186.837C-14.458,-187.238 -14.402,-187.644 -14.489,-187.945C-14.589,-188.293 -14.876,-188.51 -15.393,-188.443C-15.741,-188.402 -16.048,-188.372 -16.316,-188.368C-16.695,-188.36 -16.997,-188.393 -17.231,-188.477C-17.561,-188.59 -17.754,-188.799 -17.836,-189.121C-17.899,-189.364 -17.898,-189.665 -17.845,-190.042C-17.811,-190.281 -17.749,-190.494 -17.661,-190.691C-17.565,-190.9 -17.438,-191.088 -17.281,-191.243C-17.125,-191.402 -16.94,-191.528 -16.727,-191.624C-16.533,-191.712 -16.317,-191.774 -16.08,-191.808C-15.87,-191.837 -15.678,-191.887 -15.507,-191.954C-15.31,-192.03 -15.14,-192.13 -15,-192.256C-14.846,-192.39 -14.728,-192.549 -14.65,-192.729C-14.574,-192.9 -14.534,-193.093 -14.534,-193.306C-14.534,-193.515 -14.574,-193.708 -14.65,-193.879C-14.728,-194.063 -14.846,-194.218 -15,-194.352C-15.14,-194.478 -15.31,-194.578 -15.507,-194.653C-15.678,-194.72 -15.87,-194.771 -16.08,-194.8C-16.343,-194.838 -16.567,-194.896 -16.756,-194.976C-16.991,-195.076 -17.171,-195.214 -17.306,-195.398C-17.432,-195.57 -17.517,-195.779 -17.568,-196.043C-17.607,-196.244 -17.625,-196.474 -17.625,-196.737C-17.625,-197.001 -17.607,-197.231 -17.568,-197.436C-17.517,-197.696 -17.432,-197.909 -17.306,-198.081C-17.171,-198.261 -16.991,-198.399 -16.756,-198.499C-16.567,-198.579 -16.343,-198.637 -16.08,-198.675C-15.588,-198.746 -15.211,-198.918 -14.944,-199.144C-14.586,-199.445 -14.427,-199.847 -14.457,-200.236C-14.488,-200.625 -14.707,-200.997 -15.106,-201.244C-15.403,-201.428 -15.802,-201.546 -16.297,-201.546C-16.605,-201.546 -16.859,-201.558 -17.067,-201.587C-17.397,-201.638 -17.611,-201.734 -17.739,-201.922C-17.855,-202.09 -17.901,-202.328 -17.899,-202.663C-17.897,-202.881 -17.876,-203.132 -17.842,-203.433C-17.81,-203.713 -17.763,-203.96 -17.7,-204.178C-17.621,-204.446 -17.516,-204.672 -17.38,-204.856C-17.228,-205.065 -17.038,-205.22 -16.804,-205.337C-16.598,-205.437 -16.358,-205.504 -16.08,-205.542C-15.588,-205.613 -15.21,-205.785 -14.943,-206.011C-14.585,-206.312 -14.426,-206.718 -14.457,-207.107C-14.488,-207.492 -14.708,-207.864 -15.107,-208.111C-15.406,-208.3 -15.804,-208.413 -16.299,-208.413C-16.565,-208.413 -16.792,-208.425 -16.983,-208.446C-17.271,-208.484 -17.48,-208.551 -17.624,-208.668C-17.791,-208.798 -17.871,-208.994 -17.889,-209.275C-17.9,-209.463 -17.883,-209.689 -17.845,-209.957C-17.811,-210.195 -17.749,-210.413 -17.661,-210.605C-17.565,-210.819 -17.438,-211.003 -17.281,-211.162C-17.125,-211.317 -16.94,-211.447 -16.727,-211.539C-16.533,-211.627 -16.317,-211.689 -16.08,-211.723C-15.822,-211.76 -15.601,-211.815 -15.414,-211.894C-15.183,-211.991 -15.002,-212.124 -14.867,-212.3C-14.737,-212.468 -14.648,-212.677 -14.596,-212.928C-14.554,-213.125 -14.534,-213.355 -14.534,-213.614C-14.534,-213.782 -14.546,-213.941 -14.569,-214.087C-14.594,-214.259 -14.633,-214.413 -14.683,-214.547C-14.747,-214.719 -14.828,-214.857 -14.922,-214.953C-15.046,-215.083 -15.192,-215.142 -15.349,-215.108C-15.619,-215.054 -15.819,-215.342 -15.956,-216.008C-16.02,-216.322 -16.07,-216.711 -16.106,-217.192C-16.134,-217.544 -16.154,-217.937 -16.167,-218.38C-16.178,-218.749 -16.185,-219.142 -16.187,-219.573C-16.189,-219.983 -16.198,-220.385 -16.214,-220.762C-16.231,-221.184 -16.256,-221.586 -16.287,-221.95C-16.325,-222.398 -16.373,-222.799 -16.429,-223.13C-16.539,-223.804 -16.68,-224.21 -16.83,-224.21C-16.964,-224.21 -17.029,-224.281 -17.031,-224.402C-17.032,-224.482 -17.005,-224.586 -16.95,-224.704C-16.911,-224.787 -16.858,-224.879 -16.792,-224.98C-16.738,-225.059 -16.675,-225.143 -16.602,-225.231C-16.49,-225.365 -16.393,-225.524 -16.313,-225.691C-16.234,-225.854 -16.173,-226.026 -16.13,-226.202C-16.085,-226.382 -16.062,-226.566 -16.06,-226.737C-16.058,-226.934 -16.086,-227.118 -16.146,-227.273C-16.206,-227.432 -16.228,-227.616 -16.215,-227.817C-16.204,-227.989 -16.166,-228.173 -16.105,-228.357C-16.048,-228.528 -15.97,-228.696 -15.873,-228.855C-15.778,-229.014 -15.664,-229.164 -15.536,-229.294C-15.402,-229.428 -15.274,-229.583 -15.156,-229.754C-15.045,-229.918 -14.943,-230.093 -14.856,-230.273C-14.765,-230.457 -14.689,-230.646 -14.635,-230.83C-14.574,-231.031 -14.538,-231.223 -14.535,-231.391L-14.534,-231.416C-14.534,-231.591 -14.51,-231.805 -14.467,-232.035C-14.43,-232.228 -14.381,-232.433 -14.32,-232.638C-14.263,-232.838 -14.195,-233.039 -14.121,-233.228C-14.042,-233.433 -13.955,-233.625 -13.864,-233.793C-13.76,-233.989 -13.682,-234.157 -13.632,-234.307C-13.555,-234.533 -13.543,-234.713 -13.603,-234.86C-13.665,-235.006 -13.8,-235.123 -14.017,-235.224C-14.159,-235.287 -14.336,-235.345 -14.551,-235.404C-15.112,-235.55 -15.496,-235.918 -15.703,-236.425C-15.884,-236.864 -15.931,-237.408 -15.847,-237.998C-15.778,-238.484 -15.621,-239.002 -15.377,-239.521C-15.163,-239.978 -14.882,-240.438 -14.534,-240.881C-14.384,-241.07 -14.24,-241.271 -14.104,-241.467C-13.962,-241.677 -13.831,-241.882 -13.713,-242.082C-13.579,-242.313 -13.464,-242.53 -13.373,-242.727C-13.239,-243.02 -13.161,-243.263 -13.161,-243.417C-13.161,-243.514 -13.145,-243.597 -13.118,-243.664C-13.082,-243.752 -13.026,-243.815 -12.954,-243.853C-12.885,-243.89 -12.8,-243.899 -12.707,-243.882C-12.634,-243.865 -12.556,-243.836 -12.474,-243.786C-12.383,-243.727 -12.297,-243.656 -12.218,-243.576C-12.14,-243.501 -12.069,-243.413 -12.008,-243.325C-11.945,-243.229 -11.892,-243.133 -11.855,-243.032C-11.811,-242.924 -11.787,-242.811 -11.787,-242.714C-11.787,-242.585 -11.706,-242.384 -11.566,-242.141C-11.474,-241.982 -11.358,-241.81 -11.223,-241.626C-11.106,-241.471 -10.975,-241.308 -10.835,-241.145C-10.702,-240.994 -10.56,-240.84 -10.414,-240.693C-10.221,-240.501 -10.038,-240.266 -9.871,-240.007C-9.716,-239.764 -9.577,-239.501 -9.457,-239.233C-9.336,-238.956 -9.237,-238.676 -9.165,-238.404C-9.085,-238.099 -9.04,-237.802 -9.04,-237.538C-9.04,-237.287 -9.059,-237.057 -9.099,-236.847C-9.146,-236.601 -9.222,-236.383 -9.326,-236.195C-9.443,-235.985 -9.595,-235.814 -9.785,-235.68C-9.962,-235.554 -10.171,-235.462 -10.414,-235.4C-10.692,-235.324 -10.929,-235.236 -11.122,-235.136C-11.4,-234.994 -11.588,-234.826 -11.683,-234.646C-11.801,-234.424 -11.776,-234.178 -11.602,-233.935C-11.484,-233.768 -11.296,-233.604 -11.036,-233.441C-10.904,-233.362 -10.794,-233.215 -10.709,-233.023C-10.643,-232.872 -10.593,-232.696 -10.562,-232.508C-10.534,-232.336 -10.521,-232.156 -10.524,-231.968C-10.527,-231.792 -10.545,-231.612 -10.579,-231.437C-10.625,-231.198 -10.639,-230.968 -10.624,-230.75C-10.606,-230.512 -10.553,-230.29 -10.465,-230.085C-10.375,-229.876 -10.251,-229.683 -10.092,-229.508C-9.944,-229.349 -9.767,-229.202 -9.561,-229.072C-9.363,-228.951 -9.198,-228.838 -9.066,-228.733C-8.866,-228.57 -8.74,-228.428 -8.684,-228.277C-8.618,-228.101 -8.648,-227.917 -8.767,-227.7C-8.813,-227.616 -8.872,-227.524 -8.944,-227.428C-8.995,-227.357 -9.052,-227.285 -9.115,-227.21C-9.243,-227.055 -9.347,-226.921 -9.427,-226.796C-9.545,-226.616 -9.61,-226.461 -9.621,-226.323C-9.633,-226.156 -9.565,-226.013 -9.416,-225.867C-9.315,-225.766 -9.177,-225.67 -9.002,-225.561C-8.846,-225.465 -8.72,-225.373 -8.624,-225.285C-8.479,-225.156 -8.403,-225.03 -8.393,-224.896C-8.384,-224.766 -8.437,-224.628 -8.551,-224.469C-8.627,-224.36 -8.729,-224.247 -8.858,-224.118C-8.999,-223.975 -9.109,-223.846 -9.189,-223.72C-9.294,-223.553 -9.346,-223.394 -9.344,-223.235C-9.343,-223.076 -9.294,-222.917 -9.196,-222.741C-9.123,-222.611 -9.023,-222.473 -8.897,-222.318C-8.772,-222.172 -8.674,-222.034 -8.604,-221.912C-8.505,-221.732 -8.46,-221.578 -8.472,-221.431C-8.485,-221.281 -8.56,-221.138 -8.697,-220.992C-8.794,-220.887 -8.923,-220.782 -9.084,-220.67C-9.205,-220.586 -9.307,-220.51 -9.391,-220.439C-9.518,-220.331 -9.602,-220.239 -9.645,-220.155C-9.709,-220.025 -9.677,-219.916 -9.551,-219.816C-9.473,-219.757 -9.36,-219.695 -9.212,-219.636C-8.978,-219.54 -8.79,-219.368 -8.652,-219.159C-8.514,-218.954 -8.425,-218.707 -8.388,-218.468C-8.347,-218.201 -8.369,-217.937 -8.459,-217.736C-8.562,-217.502 -8.754,-217.343 -9.04,-217.343C-9.136,-217.343 -9.226,-217.322 -9.309,-217.284C-9.393,-217.246 -9.469,-217.188 -9.532,-217.121C-9.593,-217.054 -9.643,-216.974 -9.677,-216.887C-9.709,-216.803 -9.727,-216.711 -9.727,-216.615C-9.727,-216.523 -9.71,-216.443 -9.679,-216.376C-9.64,-216.297 -9.579,-216.242 -9.503,-216.217C-9.434,-216.192 -9.352,-216.192 -9.262,-216.213C-9.193,-216.23 -9.118,-216.263 -9.04,-216.313C-8.938,-216.376 -8.841,-216.401 -8.754,-216.389C-8.656,-216.38 -8.571,-216.33 -8.504,-216.238C-8.451,-216.171 -8.41,-216.075 -8.384,-215.966C-8.364,-215.878 -8.353,-215.778 -8.353,-215.665C-8.353,-215.497 -8.397,-215.342 -8.477,-215.204C-8.556,-215.066 -8.669,-214.949 -8.808,-214.853C-8.934,-214.769 -9.083,-214.702 -9.248,-214.656C-9.395,-214.614 -9.557,-214.593 -9.727,-214.593C-10.199,-214.593 -10.551,-214.451 -10.786,-214.225C-11.07,-213.949 -11.183,-213.56 -11.133,-213.171C-11.087,-212.815 -10.906,-212.455 -10.594,-212.179C-10.336,-211.953 -9.989,-211.785 -9.555,-211.723C-9.318,-211.689 -9.101,-211.627 -8.907,-211.539C-8.695,-211.447 -8.51,-211.317 -8.353,-211.162C-8.197,-211.003 -8.069,-210.819 -7.974,-210.605C-7.886,-210.413 -7.824,-210.195 -7.79,-209.957C-7.752,-209.689 -7.735,-209.463 -7.746,-209.275C-7.763,-208.994 -7.844,-208.798 -8.01,-208.668C-8.155,-208.551 -8.363,-208.484 -8.651,-208.446C-8.843,-208.425 -9.069,-208.413 -9.335,-208.413C-9.582,-208.413 -9.798,-208.4 -9.986,-208.375C-10.24,-208.337 -10.444,-208.275 -10.605,-208.178C-10.8,-208.061 -10.931,-207.902 -11.009,-207.685C-11.072,-207.509 -11.1,-207.295 -11.1,-207.04C-11.1,-206.843 -11.078,-206.663 -11.033,-206.504C-10.98,-206.32 -10.895,-206.161 -10.781,-206.036C-10.662,-205.906 -10.512,-205.81 -10.332,-205.747C-10.176,-205.693 -9.999,-205.667 -9.8,-205.667C-9.427,-205.667 -9.09,-205.559 -8.801,-205.362C-8.526,-205.178 -8.293,-204.91 -8.112,-204.571C-7.958,-204.287 -7.84,-203.952 -7.765,-203.575C-7.7,-203.253 -7.666,-202.897 -7.666,-202.521C-7.666,-202.332 -7.737,-202.169 -7.866,-202.027C-7.976,-201.91 -8.129,-201.805 -8.317,-201.73C-8.47,-201.667 -8.646,-201.617 -8.841,-201.587C-9.008,-201.558 -9.19,-201.546 -9.383,-201.546C-9.875,-201.546 -10.269,-201.428 -10.56,-201.236C-10.947,-200.985 -11.154,-200.612 -11.174,-200.223C-11.194,-199.838 -11.032,-199.441 -10.679,-199.139C-10.413,-198.914 -10.039,-198.742 -9.555,-198.675C-9.277,-198.637 -9.037,-198.566 -8.831,-198.466C-8.597,-198.353 -8.407,-198.198 -8.255,-197.989C-8.119,-197.805 -8.014,-197.579 -7.935,-197.307C-7.871,-197.093 -7.825,-196.846 -7.793,-196.566C-7.758,-196.265 -7.737,-196.009 -7.736,-195.796C-7.734,-195.461 -7.779,-195.218 -7.896,-195.051C-8.024,-194.867 -8.238,-194.766 -8.567,-194.72C-8.776,-194.687 -9.03,-194.679 -9.338,-194.679C-9.833,-194.679 -10.231,-194.561 -10.529,-194.377C-10.928,-194.126 -11.147,-193.754 -11.178,-193.369C-11.208,-192.98 -11.049,-192.578 -10.691,-192.272C-10.424,-192.046 -10.047,-191.875 -9.555,-191.808C-9.292,-191.77 -9.068,-191.712 -8.879,-191.632C-8.644,-191.532 -8.463,-191.394 -8.329,-191.21C-8.203,-191.038 -8.117,-190.829 -8.067,-190.569C-8.028,-190.364 -8.01,-190.134 -8.01,-189.87C-8.01,-189.607 -8.02,-189.385 -8.046,-189.197C-8.084,-188.916 -8.156,-188.711 -8.277,-188.573C-8.412,-188.418 -8.607,-188.343 -8.883,-188.326C-9.069,-188.314 -9.29,-188.33 -9.555,-188.368C-9.819,-188.406 -10.041,-188.423 -10.226,-188.41C-10.502,-188.393 -10.697,-188.318 -10.832,-188.163C-10.953,-188.025 -11.025,-187.824 -11.064,-187.54C-11.09,-187.355 -11.1,-187.134 -11.1,-186.87C-11.1,-186.606 -11.082,-186.376 -11.042,-186.175C-10.992,-185.916 -10.906,-185.703 -10.78,-185.531C-10.646,-185.349 -10.465,-185.213 -10.231,-185.113C-10.042,-185.033 -9.818,-184.976 -9.555,-184.939C-9.318,-184.905 -9.101,-184.843 -8.907,-184.755C-8.695,-184.66 -8.51,-184.532 -8.353,-184.376C-8.197,-184.219 -8.069,-184.034 -7.974,-183.821C-7.886,-183.628 -7.824,-183.411 -7.79,-183.174C-7.752,-182.904 -7.735,-182.678 -7.746,-182.491C-7.763,-182.21 -7.844,-182.015 -8.01,-181.881C-8.155,-181.767 -8.363,-181.699 -8.651,-181.663C-8.843,-181.638 -9.069,-181.629 -9.335,-181.629C-9.83,-181.629 -10.229,-181.513 -10.527,-181.328C-10.927,-181.08 -11.146,-180.707 -11.178,-180.32C-11.209,-179.931 -11.05,-179.529 -10.691,-179.225C-10.424,-178.999 -10.047,-178.828 -9.555,-178.758C-9.277,-178.718 -9.037,-178.651 -8.831,-178.55C-8.597,-178.436 -8.407,-178.279 -8.255,-178.072C-8.119,-177.887 -8.014,-177.662 -7.935,-177.391C-7.871,-177.174 -7.825,-176.928 -7.793,-176.649C-7.758,-176.348 -7.737,-176.094 -7.736,-175.879C-7.734,-175.543 -7.779,-175.304 -7.896,-175.135C-8.024,-174.95 -8.238,-174.851 -8.567,-174.802C-8.776,-174.771 -9.03,-174.76 -9.338,-174.76C-9.833,-174.76 -10.231,-174.645 -10.529,-174.46C-10.928,-174.211 -11.147,-173.838 -11.178,-173.451C-11.208,-173.063 -11.049,-172.661 -10.691,-172.357C-10.424,-172.131 -10.047,-171.96 -9.555,-171.89C-9.277,-171.85 -9.037,-171.783 -8.831,-171.682C-8.597,-171.568 -8.407,-171.411 -8.255,-171.204C-8.119,-171.019 -8.014,-170.794 -7.935,-170.523C-7.871,-170.306 -7.825,-170.06 -7.793,-169.782C-7.758,-169.48 -7.737,-169.226 -7.736,-169.012C-7.734,-168.674 -7.779,-168.435 -7.896,-168.268C-8.024,-168.082 -8.238,-167.983 -8.567,-167.934C-8.776,-167.903 -9.03,-167.893 -9.338,-167.893C-9.833,-167.893 -10.231,-167.777 -10.529,-167.592C-10.928,-167.343 -11.147,-166.97 -11.178,-166.583C-11.208,-166.195 -11.049,-165.793 -10.691,-165.489C-10.424,-165.263 -10.047,-165.091 -9.555,-165.022C-9.028,-164.947 -8.612,-164.747 -8.309,-164.475C-7.943,-164.145 -7.743,-163.71 -7.715,-163.266C-7.688,-162.82 -7.834,-162.365 -8.16,-161.996C-8.429,-161.692 -8.821,-161.448 -9.339,-161.318C-9.937,-161.168 -10.391,-160.833 -10.697,-160.395C-11.01,-159.947 -11.168,-159.391 -11.166,-158.809C-11.165,-158.272 -11.028,-157.713 -10.751,-157.2C-10.498,-156.732 -10.129,-156.302 -9.641,-155.96C-9.4,-155.791 -9.2,-155.625 -9.037,-155.455C-8.838,-155.247 -8.695,-155.034 -8.604,-154.802C-8.512,-154.567 -8.473,-154.314 -8.483,-154.029C-8.491,-153.794 -8.532,-153.537 -8.604,-153.252C-8.75,-152.67 -8.721,-152.201 -8.495,-151.834C-8.28,-151.485 -7.889,-151.226 -7.301,-151.048C-6.91,-150.929 -6.433,-150.846 -5.864,-150.795C-5.431,-150.756 -4.945,-150.735 -4.404,-150.733C-4.2,-150.731 -4.013,-150.711 -3.844,-150.674C-3.644,-150.629 -3.469,-150.558 -3.323,-150.465C-3.157,-150.36 -3.028,-150.224 -2.938,-150.061C-2.852,-149.905 -2.802,-149.724 -2.791,-149.521L-2.749,-148.792L-2.707,-148.064L-2.619,-146.606C-2.563,-145.683 -1.744,-144.602 0,-143.255M17.058,-56.625L18.775,-56.155L17.058,-55.86C16.561,-55.775 16.69,-55.701 17.295,-55.65C17.526,-55.631 17.826,-55.615 18.188,-55.604C18.454,-55.596 18.754,-55.59 19.082,-55.586C19.36,-55.583 19.659,-55.583 19.977,-55.584C20.402,-55.585 20.804,-55.593 21.181,-55.608C21.617,-55.624 22.019,-55.649 22.383,-55.68C22.847,-55.721 23.247,-55.774 23.577,-55.837C24.241,-55.963 24.613,-56.133 24.613,-56.332C24.613,-56.531 24.242,-56.7 23.577,-56.827C23.248,-56.89 22.847,-56.942 22.383,-56.983C22.019,-57.015 21.617,-57.039 21.181,-57.055C20.804,-57.069 20.402,-57.077 19.977,-57.079C19.634,-57.08 19.317,-57.079 19.025,-57.074C18.669,-57.07 18.352,-57.061 18.074,-57.049C17.674,-57.031 17.356,-57.006 17.125,-56.975C16.549,-56.896 16.505,-56.776 17.058,-56.625M-50.935,27.836C-51.253,27.872 -51.556,27.917 -51.84,27.971C-52.164,28.032 -52.462,28.104 -52.731,28.183C-53.065,28.281 -53.353,28.393 -53.585,28.512C-53.952,28.702 -54.179,28.914 -54.225,29.13C-54.255,29.275 -54.262,29.396 -54.244,29.492C-54.218,29.63 -54.143,29.717 -54.02,29.754C-53.927,29.782 -53.806,29.781 -53.659,29.751C-53.556,29.73 -53.439,29.695 -53.31,29.646C-53.136,29.579 -52.918,29.515 -52.675,29.458C-52.471,29.41 -52.251,29.366 -52.025,29.33C-51.807,29.294 -51.584,29.265 -51.368,29.244C-51.135,29.222 -50.91,29.209 -50.706,29.207C-50.408,29.205 -50.079,29.16 -49.746,29.086C-49.431,29.016 -49.113,28.92 -48.817,28.81C-48.484,28.685 -48.18,28.543 -47.941,28.399C-47.497,28.132 -47.279,27.863 -47.521,27.701C-47.595,27.651 -47.908,27.633 -48.371,27.642C-48.618,27.647 -48.908,27.66 -49.227,27.681C-49.494,27.698 -49.782,27.721 -50.082,27.748C-50.357,27.773 -50.644,27.803 -50.935,27.836M-45.65,-57.566C-45.958,-57.258 -46.007,-56.965 -45.845,-56.718C-45.712,-56.517 -45.438,-56.346 -45.052,-56.224C-44.789,-56.141 -44.475,-56.081 -44.118,-56.047C-43.828,-56.021 -43.51,-56.012 -43.167,-56.025C-42.979,-56.032 -42.81,-56.04 -42.66,-56.049C-42.455,-56.062 -42.286,-56.078 -42.154,-56.096C-41.803,-56.144 -41.71,-56.211 -41.869,-56.299C-41.955,-56.346 -42.116,-56.4 -42.35,-56.461L-43.723,-56.817L-42.35,-57.363C-42.111,-57.458 -41.927,-57.538 -41.803,-57.604C-41.519,-57.755 -41.539,-57.841 -41.9,-57.892C-42.044,-57.912 -42.242,-57.927 -42.496,-57.938C-42.669,-57.946 -42.868,-57.952 -43.093,-57.957C-43.314,-57.962 -43.534,-57.96 -43.748,-57.951C-43.975,-57.942 -44.195,-57.926 -44.4,-57.903C-44.64,-57.877 -44.859,-57.843 -45.047,-57.802C-45.343,-57.737 -45.56,-57.656 -45.65,-57.566"/>
                </g>
            </g>
            <g transform="matrix(2.38636,-3.56038,-1.90405,-4.46226,8173.9,7141.13)">
                <g id="Sun">
                    <path d="M-179.157,-62.714C-335.653,-62.713 -462.715,66.005 -462.709,224.537C-462.71,383.077 -335.651,511.793 -179.157,511.788C-22.657,511.792 104.404,383.073 104.394,224.536C104.399,66.001 -22.66,-62.714 -179.157,-62.714" style="fill:rgb(221,26,21);"/>
                </g>
            </g>
            <g id="Mount-Fuji" serif:id="Mount Fuji" transform="matrix(3.05289,0,0,5.7086,1863.64,-3683.13)">
                <g transform="matrix(1,0,0,1,2210.58,2559.31)">
                    <path d="M0,-417.34L-628.937,-552.087L-766.55,-478.469L-911.521,-374.581L-1223.78,-181.903C-1223.78,-181.903 -1311.39,-87.435 -1337.52,-78.972C-1372.6,-67.605 -1403.84,-43.37 -1429.92,-22.915C-1475.06,12.496 -1530.37,32.058 -1584.65,66.587C-1610.2,82.846 -1651.38,98.369 -1662.02,127.881L-1181.38,132.501L299.365,132.501L764.821,134.747C764.358,124.437 746.516,106.425 738.575,89.74C729.783,71.285 715.512,49.751 704.129,32.592C692.487,15.082 666.481,2.971 649.896,-13.577C635.848,-27.609 613.84,-35.535 593.535,-49.573C583.151,-56.738 571.768,-63.906 559.164,-71.074C539.821,-82.07 517.628,-93.066 491.826,-104.068C476.981,-110.403 467.598,-122.808 455.399,-131.653C443.109,-140.589 423.545,-137.231 411.347,-145.738C404.295,-150.662 397.262,-155.51 390.265,-160.28C323.372,-205.797 258.497,-244.106 196.638,-271.721L162.966,-298.467L95.475,-359.995L34.109,-399.854L0,-417.34Z" style="fill-rule:nonzero;"/>
                </g>
                <g transform="matrix(1,0,0,1,1950.94,1895.12)">
                    <path d="M0,248.123C0,248.123 -131.959,-21.881 -132.448,-21.948C-135.802,-21.948 -144.185,-20.563 -152.567,-17.794C-169.333,-12.254 -171.008,-16.408 -187.774,-19.179C-201.188,-21.948 -211.246,-15.023 -217.954,-10.869C-249.808,5.752 -296.752,55.61 -323.576,76.385C-363.813,108.24 -499.617,191.339 -499.617,191.339C-499.617,191.339 -526.441,212.114 -554.943,255.048C-554.943,255.048 -499.617,224.579 -476.145,223.194C-462.731,223.194 -472.791,255.048 -472.791,255.048L-390.639,209.344L-405.195,260.869C-405.195,260.869 -380.579,235.658 -340.342,216.269C-316.87,205.189 -273.054,162.792 -274.955,171.95C-277.286,183.168 -285.531,250.262 -274.531,252.965L-249.808,207.958C-249.808,207.958 -241.426,212.114 -231.366,206.575C-162.625,166.41 -174.579,263.796 -174.579,263.796C-156.542,270.071 -134.906,219.86 -108.976,210.729C-57.002,203.804 0,248.123 0,248.123Z" style="fill:white;fill-rule:nonzero;stroke:black;stroke-width:3.36px;"/>
                </g>
                <g transform="matrix(1,0,0,1,1895.61,1929.95)">
                    <path d="M0,182.819C31.855,193.898 57.003,213.288 57.003,213.288L43.591,184.204C85.506,182.819 108.978,202.209 108.978,202.209C108.978,202.209 110.655,174.509 125.744,178.665C165.981,188.359 226.336,232.678 226.336,232.678C226.336,232.678 224.66,214.673 239.75,213.288C274.957,209.134 345.374,242.373 345.374,242.373C330.284,227.138 328.608,213.288 328.608,213.288C328.608,213.288 145.861,117.725 92.212,78.946C53.651,51.246 -15.089,-12.464 -50.296,-42.933C-57.003,-48.473 -72.092,-59.554 -80.475,-58.168C-84.943,-57.032 -96.184,-52.988 -96.184,-52.988" style="fill:rgb(197,204,214);fill-rule:nonzero;stroke:black;stroke-width:3.36px;"/>
                </g>
                <g transform="matrix(1,0,0,1,1802.85,2104.68)">
                    <path d="M0,-225.613C0,-225.613 -12.096,-212.682 -23.731,-196.644C-29.717,-188.393 -35.895,-181.282 -40.876,-178.663C-40.876,-178.663 -33.976,-172.149 -33.78,-158.496C-33.72,-154.343 -34.281,-149.53 -35.845,-144.038C-35.845,-144.038 -14.051,-164.813 -14.051,-148.194C-14.051,-116.338 14.45,-119.108 19.481,-103.873C41.276,-45.704 74.808,-5.54 91.573,0" style="fill:rgb(197,204,214);fill-rule:nonzero;"/>
                </g>
                <g transform="matrix(1,0,0,1,1560.79,1986.96)">
                    <path d="M0,78.944L63.709,0L43.592,47.09L0,78.944Z" style="fill:rgb(197,204,214);fill-rule:nonzero;"/>
                </g>
                <g transform="matrix(1,0,0,1,1646.29,1950.95)">
                    <path d="M0,78.944L0,48.475L63.709,0L0,78.944Z" style="fill:rgb(197,204,214);fill-rule:nonzero;"/>
                </g>
            </g>
            <g transform="matrix(3.05289,0,0,5.7086,4594.8,9948.69)">
                <g id="Sky-Tower" serif:id="Sky Tower">
                    <path d="M0,-515.748C-0.973,-515.356 -1.982,-514.337 -1.982,-513.751C-1.982,-513.448 -1.594,-512.674 -1.119,-512.034C-0.349,-510.99 -0.314,-510.756 -0.794,-509.86C-1.207,-509.086 -1.223,-508.748 -0.864,-508.388C-0.273,-507.794 -0.208,-497.141 -0.793,-496.777C-1.417,-496.392 -1.264,-494.204 -0.595,-493.948C-0.254,-493.818 0,-493.225 0,-492.562C0,-491.897 -0.254,-491.303 -0.595,-491.173C-0.963,-491.033 -1.189,-490.428 -1.189,-489.586C-1.189,-488.747 -0.963,-488.143 -0.595,-488.002C-0.263,-487.873 0,-487.286 0,-486.667C0,-486.052 -0.263,-485.461 -0.595,-485.335C-0.935,-485.206 -1.189,-484.615 -1.189,-483.953C-1.189,-483.32 -0.922,-482.578 -0.595,-482.308C0.067,-481.758 0.226,-479.534 -0.396,-479.534C-0.614,-479.534 -0.793,-478.731 -0.793,-477.748C-0.793,-476.766 -0.614,-475.963 -0.396,-475.963C0.343,-475.963 0.049,-473.656 -0.721,-473.411C-1.351,-473.21 -1.405,-472.915 -1.146,-471.104C-0.984,-469.96 -0.838,-467.653 -0.822,-465.976C-0.806,-464.298 -0.638,-462.834 -0.449,-462.715C0.131,-462.358 0.483,-458.507 -0.009,-457.914C-0.658,-457.133 -1.21,-450.427 -1.165,-443.852C-1.144,-440.688 -1.24,-437.812 -1.379,-437.46C-1.519,-437.103 -1.357,-436.542 -1.014,-436.2C-0.492,-435.678 -0.396,-434.206 -0.396,-426.641L-0.396,-417.7L-1.487,-417.459C-5.108,-416.657 -6.373,-415.699 -5.07,-414.745C-4.534,-414.353 -4.501,-413.166 -4.795,-404.988C-5.282,-391.492 -5.272,-391.589 -6.305,-390.865C-6.801,-390.52 -7.094,-389.998 -6.973,-389.681C-6.833,-389.318 -7.237,-388.889 -8.118,-388.468C-9.864,-387.637 -9.977,-387.277 -9.295,-384.714C-8.985,-383.552 -8.729,-382.508 -8.727,-382.396C-8.724,-382.285 -9.265,-381.957 -9.929,-381.662C-10.593,-381.367 -11.414,-380.705 -11.752,-380.187C-12.318,-379.326 -12.304,-379.143 -11.596,-377.948C-11.172,-377.235 -10.437,-375.67 -9.964,-374.471C-9.375,-372.978 -8.731,-372.078 -7.922,-371.613C-6.774,-370.959 -6.74,-370.85 -6.74,-367.946C-6.74,-365.218 -6.81,-364.955 -7.533,-364.955C-8.061,-364.955 -8.326,-364.689 -8.326,-364.163C-8.326,-363.634 -8.061,-363.368 -7.533,-363.368C-6.916,-363.368 -6.74,-363.105 -6.74,-362.18C-6.74,-361.277 -6.92,-360.989 -7.49,-360.989C-8.27,-360.989 -8.89,-359.995 -8.502,-359.369C-8.379,-359.171 -7.933,-359.009 -7.509,-359.009C-6.953,-359.009 -6.74,-358.732 -6.74,-358.016C-6.74,-357.213 -6.935,-357.026 -7.773,-357.026C-8.553,-357.026 -8.748,-356.871 -8.566,-356.4C-8.434,-356.054 -8.326,-355.698 -8.326,-355.605C-8.326,-355.515 -7.969,-355.439 -7.533,-355.439C-6.916,-355.439 -6.74,-355.176 -6.74,-354.251C-6.74,-353.326 -6.916,-353.06 -7.533,-353.06C-8.114,-353.06 -8.326,-352.797 -8.326,-352.07C-8.326,-351.343 -8.114,-351.077 -7.533,-351.077C-6.916,-351.077 -6.74,-350.814 -6.74,-349.889C-6.74,-348.964 -6.916,-348.701 -7.533,-348.701C-8.073,-348.701 -8.326,-348.435 -8.326,-347.87C-8.326,-347.373 -8.007,-346.956 -7.533,-346.834C-7.094,-346.718 -6.74,-346.29 -6.74,-345.88C-6.74,-345.397 -7.02,-345.131 -7.533,-345.131C-8.114,-345.131 -8.326,-344.868 -8.326,-344.141C-8.326,-343.414 -8.114,-343.148 -7.533,-343.148C-7.004,-343.148 -6.74,-342.885 -6.74,-342.356C-6.74,-341.827 -7.004,-341.564 -7.533,-341.564C-8.061,-341.564 -8.326,-341.298 -8.326,-340.769C-8.326,-340.243 -8.061,-339.977 -7.533,-339.977C-6.766,-339.977 -6.74,-339.714 -6.74,-332.102L-6.74,-324.227L-11.398,-324.026C-16.64,-323.795 -19.054,-323.072 -19.764,-321.514C-20.128,-320.715 -20.029,-320.063 -19.217,-317.907C-18.328,-315.543 -18.288,-315.204 -18.826,-314.61C-19.156,-314.247 -19.426,-313.603 -19.424,-313.185C-19.424,-312.768 -17.354,-306.624 -14.826,-299.537L-10.229,-286.652L-10.464,-281.3C-10.593,-278.356 -11.141,-266.227 -11.681,-254.343C-12.222,-242.458 -12.853,-228.274 -13.084,-222.823C-15.786,-158.974 -18.89,-112.304 -22.828,-76.331C-24.324,-62.665 -29.283,-29.89 -30.656,-24.592L-31.17,-22.61L-33.029,-22.489L-34.889,-22.368L-34.892,-20.507C-34.894,-19.483 -35.007,-17.715 -35.144,-16.578L-35.392,-14.512L-42.223,-14.284L-42.68,-10.716C-42.931,-8.754 -43.268,-5.498 -43.428,-3.48L-43.719,0.187L48.874,0.187L48.637,-1.895C48.506,-3.04 48.181,-6.34 47.915,-9.229L47.43,-14.482L41.629,-14.482L41.629,-18.241C41.629,-21.891 41.601,-22.007 40.665,-22.242C40.135,-22.375 39.065,-22.398 38.286,-22.293C37.508,-22.188 36.871,-22.175 36.871,-22.264C36.871,-22.353 36.417,-24.518 35.863,-27.077C34.279,-34.388 30.716,-58.219 29.358,-70.582C24.461,-115.162 22.031,-150.434 19.022,-220.643C18.793,-225.985 18.44,-233.478 18.238,-237.294C18.036,-241.11 17.477,-253.778 16.997,-265.443L16.123,-286.652L20.392,-298.35C25.953,-313.581 25.743,-312.825 24.702,-313.865L23.865,-314.704L25.051,-317.49C26.031,-319.793 26.162,-320.445 25.803,-321.229C25.058,-322.867 22.292,-323.763 17.21,-324.015L12.687,-324.238L12.687,-332.106C12.687,-338.84 12.773,-339.977 13.282,-339.977C13.651,-339.977 13.876,-340.351 13.876,-340.97C13.876,-341.586 13.651,-341.96 13.282,-341.96C12.954,-341.96 12.687,-342.227 12.687,-342.554C12.687,-342.882 12.954,-343.148 13.282,-343.148C13.644,-343.148 13.876,-343.519 13.876,-344.098C13.876,-344.732 13.663,-345.027 13.229,-344.987C12.283,-344.908 12.178,-346.366 13.112,-346.61C14.041,-346.852 14.191,-348.701 13.282,-348.701C12.885,-348.701 12.687,-349.097 12.687,-349.889C12.687,-350.681 12.885,-351.077 13.282,-351.077C13.612,-351.077 13.876,-351.43 13.876,-351.872C13.876,-352.401 13.612,-352.664 13.083,-352.664C12.494,-352.664 12.29,-352.93 12.29,-353.693C12.29,-354.388 12.548,-354.788 13.083,-354.928C13.596,-355.061 13.876,-355.468 13.876,-356.08C13.876,-356.76 13.655,-357.026 13.083,-357.026C11.933,-357.026 12.023,-358.52 13.183,-358.682C13.756,-358.765 14.12,-359.128 14.201,-359.7C14.304,-360.427 14.139,-360.593 13.309,-360.593C12.441,-360.593 12.29,-360.769 12.29,-361.784C12.29,-362.788 12.445,-362.972 13.282,-362.972C14.008,-362.972 14.273,-363.184 14.273,-363.764C14.273,-364.347 14.008,-364.559 13.282,-364.559C12.308,-364.559 12.29,-364.613 12.29,-367.69C12.29,-370.8 12.3,-370.829 13.579,-371.606C14.487,-372.157 15.151,-373.075 15.826,-374.716C16.354,-375.997 17.038,-377.343 17.345,-377.707C18.199,-378.718 17.786,-380.097 16.335,-381.068C15.616,-381.554 14.813,-382.022 14.551,-382.109C14.198,-382.227 14.254,-382.771 14.77,-384.218C15.758,-386.982 15.671,-387.507 14.114,-388.159C11.427,-389.278 11.254,-390.016 10.69,-402.685C10.224,-413.166 10.236,-414.101 10.845,-414.71C11.208,-415.073 11.403,-415.534 11.278,-415.735C10.914,-416.326 9.044,-417.161 7.434,-417.452L5.947,-417.722L5.947,-426.543C5.947,-432.939 6.079,-435.498 6.429,-435.847C7.372,-436.79 6.527,-456.765 5.495,-457.906C5.008,-458.443 5.067,-462.88 5.562,-462.88C6.102,-462.88 5.648,-472.267 5.049,-473.501C4.722,-474.171 4.73,-474.743 5.079,-475.708C5.653,-477.295 5.697,-479.534 5.154,-479.534C4.936,-479.534 4.758,-480.156 4.758,-480.919C4.758,-481.682 4.936,-482.308 5.154,-482.308C5.372,-482.308 5.551,-482.92 5.551,-483.672C5.551,-484.421 5.372,-485.145 5.154,-485.281C4.936,-485.415 4.758,-486.141 4.758,-486.89C4.758,-487.642 4.936,-488.254 5.154,-488.254C5.372,-488.254 5.551,-488.967 5.551,-489.841C5.551,-490.712 5.372,-491.425 5.154,-491.425C4.936,-491.425 4.758,-492.051 4.758,-492.814C4.758,-493.577 4.936,-494.2 5.154,-494.2C5.704,-494.2 5.651,-496.032 5.074,-496.957C4.699,-497.558 4.73,-498.976 5.219,-503.583C5.673,-507.848 5.726,-509.633 5.413,-510.133C5.075,-510.673 5.171,-511.019 5.862,-511.753C7.8,-513.815 6.431,-515.694 2.86,-515.874C1.614,-515.935 0.327,-515.878 0,-515.748"/>
                </g>
            </g>
            <g id="Skyline">
            </g>
            <g transform="matrix(3.04895,0,0,5.70123,10004.8,6091.56)">
                <g transform="matrix(1,0,0,1,-2.65617,308.435)">
                    <rect x="20" y="140" width="85" height="240" style="fill:rgb(17,17,17);"/>
                </g>
                <g transform="matrix(1,0,0,1,-2.65617,308.435)">
                    <rect x="195" y="140" width="85" height="240" style="fill:rgb(17,17,17);"/>
                </g>
                <g transform="matrix(1,0,0,1,-2.65617,308.435)">
                    <path d="M20,70L280,70L280,140L20,140L20,70ZM178,105C178,120.36 165.36,133 150,133C134.64,133 122,120.36 122,105C122,89.64 134.64,77 150,77C165.36,77 178,89.64 178,105Z" style="fill:rgb(17,17,17);"/>
                </g>
                <g transform="matrix(1,0,0,1,-2.65617,308.435)">
                    <rect x="105" y="190" width="90" height="18" style="fill:rgb(17,17,17);"/>
                </g>
                <g transform="matrix(1,0,0,1,-2.65617,308.435)">
                    <rect x="118" y="208" width="8" height="50" style="fill:rgb(17,17,17);"/>
                </g>
                <g transform="matrix(1,0,0,1,-2.65617,308.435)">
                    <rect x="174" y="208" width="8" height="50" style="fill:rgb(17,17,17);"/>
                </g>
            </g>
            <g transform="matrix(1.04423,0,0,1.9526,7318.84,6089.57)">
                <g transform="matrix(1,0,0,1,-1829.17,-352.083)">
                    <g id="Artboard11" serif:id="Artboard1" transform="matrix(4.16667,0,0,4.16667,0,0)">
                        <rect x="0" y="0" width="878" height="169" style="fill:none;"/>
                    </g>
                    <g id="Artboard12" serif:id="Artboard1" transform="matrix(4.16667,0,0,4.16667,0,0)">
                        <g transform="matrix(1,0,0,1,-54,-410)">
                            <path d="M124,422L155,422L155,537L154,539L146,547L139,555L133,560L85,560L80,555L66,540L66,491L95.878,491.122L96,525L99,526L120,526L123,523L124,422Z" style="fill:rgb(255,207,0);"/>
                        </g>
                        <g transform="matrix(1,0,0,1,-54,-410)">
                            <path d="M195,442L239,442L260,465L260,560L232,560L231,533L230,532L205,532L203,535L202,560L174,560L174,464L195,442ZM204,474L202,478L202,502L204,504L230,504L232,501L232,477L230,474L204,474Z" style="fill:rgb(255,207,0);"/>
                        </g>
                        <g transform="matrix(1,0,0,1,-54,-410)">
                            <path d="M279,442L343,442L349,448L361,461L361.319,512L345,526L309,527L309,560L279,560L279,442ZM309,469L308,470L308,491L310,498L324,498L331,497L332,495L332,472L329,469L309,469Z" style="fill:rgb(255,207,0);"/>
                        </g>
                        <g transform="matrix(1,0,0,1,-54,-410)">
                            <path d="M399,442L442,442L452,452L464,465L464,560L436,560L435,533L407,533L406,560L378,560L378,464L388,454L399,442ZM409,474L407,476L407,503L410,505L428,505L435,503L435,476L432,474L409,474Z" style="fill:rgb(255,207,0);"/>
                        </g>
                        <g transform="matrix(1,0,0,1,-54,-410)">
                            <path d="M483,442L514,442L520,453L544,501L545,502L545,442L575,442L575,560L542,560L534,543L517,509L514,500L512,500L513,506L513,560L483,560L483,442Z" style="fill:rgb(255,207,0);"/>
                        </g>
                        <g transform="matrix(1,0,0,1,-54,-410)">
                            <path d="M832,442L862,442L864,445L872,461L882,480L892,501L893,442L921,442L921,560L891,560L890,559L881,540L864,506L862,500L860,500L861,560L832,560L832,442Z" style="fill:rgb(255,207,0);"/>
                        </g>
                        <g transform="matrix(1,0,0,1,-54,-410)">
                            <path d="M746,442L790,442L796,448L812,465L812,560L784,560L783,534L782,532L753,532L753,560L725,560L725,464L739,450L746,442ZM757,474L755,476L755,504L757,505L780,505L784,502L784,479L783,475L781,474L757,474Z" style="fill:rgb(255,207,0);"/>
                        </g>
                        <g transform="matrix(1,0,0,1,-54,-410)">
                            <path d="M618,421L620,421L631,440L643,462L645,467L648,467L648,465L654,455L660,443L670,425L674,421L704,422L704,560L673,560L672,487L668,494L656,514L648,527L645,527L633,507L623,490L622,485L621,486L621,560L592,560L591,559L591,422L618,421Z" style="fill:rgb(255,207,0);"/>
                        </g>
                        <g transform="matrix(1,0,0,1,-54,-410)">
                            <g transform="matrix(1,0,0,1,117,410)">
                                <path d="M0,0L45,0L49,4L50,8L50,44L73,21L75,20L124,20L130,23L139,32L146,40L148,44L150,44L151,24L156,20L229,20L235,24L246,35L253,43L257,41L277,21L279,20L329,20L337,27L348,38L353,44L354,44L355,25L359,20L401,20L406,25L416,43L418,44L418,24L422,20L462,20L462,3L465,0L508,0L515,9L523,24L528,33L529,34L537,20L547,3L550,0L594,0L598,4L598,46L627,20L675,20L681,24L704,47L704,24L709,20L748,20L753,23L756,28L764,42L765,43L766,24L769,21L772,20L809,20L814,23L815,24L815,165L811,169L771,169L767,165L756,143L755,165L751,169L660,169L656,164L656,143L648,143L647,162L645,167L642,169L550,169L545,164L544,119L534,137L527,138L520,128L518,122L516,122L517,125L516,164L511,169L424,169L419,165L409,145L408,150L408,158L406,167L403,169L313,169L309,166L308,163L308.005,142.995L301,143L301,163L298,168L296,169L253,169L249,165L248,119L243,124L234,132L228,134L205,134L204,164L199,169L110,169L105,164L105.11,142.013L97,142L97,165L93,169L49,169L44,164L44,154L36,161L34,163L26,169L-30,169L-38,163L-54,146L-62,135L-63,132L-63,75L-60,70L-57,69L-17,69L-11.057,72.27L-11,102L-4,102L-4,4L0,0ZM7,12L6,113L3,116L-18,116L-21,115L-21.122,81.122L-51,81L-51,130L-37,145L-32,150L16,150L22,145L29,137L37,129L38,127L38,12L7,12ZM501,11L474,12L474,149L475,150L504,150L504,76L505,75L506,80L516,97L528,117L531,117L539,104L551,84L555,77L556,150L587,150L587,12L557,11L553,15L543,33L537,45L531,55L531,57L528,57L526,52L514,30L503,11L501,11ZM78,32L57,54L57,150L85,150L86,125L88,122L113,122L114,123L115,150L143,150L143,55L122,32L78,32ZM162,32L162,150L192,150L192,117L228,116L244.319,102L244,51L232,38L226,32L162,32ZM282,32L271,44L261,54L261,150L289,150L290,123L318,123L319,150L347,150L347,55L335,42L325,32L282,32ZM366,32L366,150L396,150L396,96L395,90L397,90L400,99L417,133L425,150L458,150L458,32L428,32L428,92L427,91L403,43L397,32L366,32ZM629,32L622,40L608,54L608,150L636,150L636,122L665,122L666,124L667,150L695,150L695,55L679,38L673,32L629,32ZM715,32L715,150L744,150L743,90L745,90L747,96L764,130L773,149L774,150L804,150L804,32L776,32L775,91L765,70L755,51L747,35L745,32L715,32Z" style="fill-rule:nonzero;"/>
                            </g>
                            <g transform="matrix(1,0,0,1,309,469)">
                                <path d="M0,0L20,0L23,3L23,26L22,28L15,29L1,29L-1,22L-1,1L0,0Z" style="fill-rule:nonzero;"/>
                            </g>
                            <g transform="matrix(1,0,0,1,204,474)">
                                <path d="M0,0L26,0L28,3L28,27L26,30L0,30L-2,28L-2,4L0,0Z" style="fill-rule:nonzero;"/>
                            </g>
                            <g transform="matrix(1,0,0,1,409,474)">
                                <path d="M0,0L23,0L26,2L26,29L19,31L1,31L-2,29L-2,2L0,0Z" style="fill-rule:nonzero;"/>
                            </g>
                            <g transform="matrix(1,0,0,1,757,474)">
                                <path d="M0,0L24,0L26,1L27,5L27,28L23,31L0,31L-2,30L-2,2L0,0Z" style="fill-rule:nonzero;"/>
                            </g>
                        </g>
                    </g>
                </g>
            </g>
        </g>
    </g>
</svg>
