<?xml version="1.0" encoding="UTF-8" standalone="no"?>
<!DOCTYPE svg PUBLIC "-//W3C//DTD SVG 1.1//EN" "http://www.w3.org/Graphics/SVG/1.1/DTD/svg11.dtd">
<svg width="100%" height="100%" viewBox="0 0 500 500" version="1.1" xmlns="http://www.w3.org/2000/svg" xmlns:xlink="http://www.w3.org/1999/xlink" xml:space="preserve" xmlns:serif="http://www.serif.com/" style="fill-rule:evenodd;clip-rule:evenodd;stroke-linejoin:round;stroke-miterlimit:2;">
    <g id="Artboard1" transform="matrix(0.976562,0,0,1.59744,0,0)">
        <rect x="0" y="0" width="512" height="313" style="fill:none;"/>
        <clipPath id="_clip1">
            <rect x="0" y="0" width="512" height="313"/>
        </clipPath>
        <g clip-path="url(#_clip1)">
            <g transform="matrix(1.024,0,0,0.626,-233.472,-40.377)">
                <path d="M503,273L538,386L560,328L503,273Z" style="fill:rgb(214,3,37);"/>
                <g transform="matrix(1,0,0,1,-3,-2)">
                    <path d="M647,185L613,212L547,388L601,449L640,227L731,274L647,185Z" style="fill:rgb(214,3,37);"/>
                </g>
                <path d="M639,239L644,240L621,463L605,457L639,239Z" style="fill:rgb(214,3,37);"/>
                <path d="M544,398L411,435L417,448L496,438L601,465L544,398Z" style="fill:rgb(214,3,37);"/>
                <path d="M495,275L417,360L528,380L495,275" style="fill:rgb(214,3,37);"/>
                <path d="M377,375L406,359L457,303L278,158L377,375Z" style="fill:rgb(214,3,37);"/>
                <path d="M408,367L226,471L409.989,427.379L540,391L408,367Z" style="fill:rgb(214,3,37);"/>
            </g>
        </g>
    </g>
</svg>
